<?xml version="1.0" encoding="UTF-8"?>
<svg width="252px" height="384px" viewBox="0 0 252 384" version="1.1" xmlns="http://www.w3.org/2000/svg" xmlns:xlink="http://www.w3.org/1999/xlink">
    <!-- Generator: Sketch 50.2 (55047) - http://www.bohemiancoding.com/sketch -->
    <title>BLOG_my_ws</title>
    <desc>Created with Sketch.</desc>
    <defs></defs>
    <g id="Page-1" stroke="none" stroke-width="1" fill="none" fill-rule="evenodd">
        <g id="Apple-TV" transform="translate(-436.000000, -271.000000)" fill-rule="nonzero">
            <g id="BLOG" transform="translate(436.000000, 271.000000)">
                <g id="Group" transform="translate(69.000000, 256.668407)">
                    <polygon id="Shape" fill="#973E9B" points="18.159 86.5072794 118.733 27.9076762 181.298 64.1239896 80.724 122.723593"></polygon>
                    <path d="M182.281,65.7853159 C182.28,65.7692742 182.28,65.7532324 182.279,65.7371906 C182.278,65.7211488 182.277,65.705107 182.275,65.6880627 C182.273,65.6720209 182.272,65.6559791 182.269,65.6389347 C182.267,65.6218903 182.265,65.6058486 182.262,65.5888042 C182.259,65.5717598 182.257,65.555718 182.253,65.5386736 C182.25,65.5216292 182.246,65.5045849 182.242,65.4865379 C182.238,65.4694935 182.234,65.4524491 182.23,65.4344021 C182.226,65.4163551 182.221,65.3993107 182.216,65.3822663 C182.212,65.3692324 182.208,65.3551958 182.204,65.3421619 L182.204,65.3411593 C182.203,65.3371488 182.202,65.334141 182.202,65.334141 C182.196,65.3130862 182.19,65.2960418 182.184,65.2789974 C182.179,65.261953 182.173,65.2459112 182.167,65.2288668 C182.161,65.2128251 182.155,65.1967833 182.149,65.1807415 C182.143,65.1646997 182.136,65.148658 182.13,65.1326162 C182.123,65.1165744 182.117,65.1015352 182.11,65.0854935 C182.103,65.0694517 182.096,65.0534099 182.088,65.0373681 C182.08,65.0203238 182.072,65.0032794 182.063,64.986235 C182.053,64.9661828 182.043,64.9471332 182.033,64.9270809 C182.021,64.9050235 182.009,64.8829661 181.996,64.8619112 C181.996,64.8619112 181.994,64.8579008 181.992,64.8558956 C181.989,64.8508825 181.987,64.8458695 181.984,64.8408564 C181.961,64.8017546 181.936,64.7626527 181.911,64.7245535 C181.891,64.6944752 181.87,64.6653995 181.849,64.6363238 C181.835,64.6172742 181.82,64.5982245 181.805,64.5791749 C181.793,64.5631332 181.78,64.548094 181.767,64.5320522 C181.755,64.5170131 181.742,64.5019739 181.729,64.4879373 C181.716,64.4739008 181.704,64.4598642 181.691,64.4458277 C181.688,64.4428198 181.685,64.4388094 181.682,64.4358016 L181.68,64.4337963 C181.67,64.4237702 181.661,64.4127415 181.651,64.4027154 C181.637,64.3886789 181.623,64.3746423 181.609,64.3616084 C181.595,64.3475718 181.58,64.3345379 181.566,64.3215039 C181.551,64.30847 181.537,64.295436 181.522,64.2834047 C181.507,64.2713734 181.493,64.259342 181.478,64.2473107 C181.464,64.236282 181.449,64.2242507 181.435,64.2142245 C181.421,64.2041984 181.406,64.1931697 181.392,64.1831436 C181.378,64.1731175 181.364,64.164094 181.35,64.1550705 C181.336,64.146047 181.322,64.1380261 181.308,64.1290026 C181.308,64.1290026 181.302,64.1249922 181.298,64.1229869 L80.724,122.72259 C80.86,122.801796 80.99,122.908073 81.108,123.033399 L81.11,123.035405 C81.227,123.159728 81.332,123.303102 81.42,123.455499 C81.421,123.457504 81.422,123.459509 81.422,123.459509 C81.511,123.614914 81.582,123.777337 81.631,123.93976 C81.631,123.93976 81.631,123.940762 81.632,123.941765 C81.681,124.106193 81.708,124.271624 81.708,124.429034 L81.703,126.206663 C81.703,126.362068 81.675,126.494413 81.625,126.600689 L81.625,126.601692 C81.575,126.707969 81.504,126.78918 81.415,126.840313 L181.989,68.2407102 C182.057,68.2016084 182.114,68.1444595 182.16,68.0732742 C182.174,68.0522193 182.186,68.0291593 182.197,68.0050966 C182.197,68.004094 182.198,68.0030914 182.198,68.0030914 L182.199,68.0000836 C182.207,67.9830392 182.214,67.9659948 182.221,67.9489504 C182.227,67.931906 182.233,67.9148616 182.238,67.8968146 C182.243,67.8807728 182.247,67.8637285 182.251,67.8466841 C182.254,67.8306423 182.258,67.8146005 182.261,67.7985587 C182.264,67.7835196 182.266,67.7674778 182.268,67.751436 C182.27,67.7353943 182.272,67.7203551 182.273,67.7043133 C182.274,67.6892742 182.275,67.6732324 182.276,67.6581932 C182.277,67.643154 182.277,67.6271123 182.277,67.6110705 L182.277,67.6080627 L182.282,65.8294308 C182.281,65.8153943 182.281,65.8003551 182.281,65.7853159 Z" id="Shape" fill="#691787"></path>
                    <polygon id="Shape" fill="#F2F3F3" points="78.33 105.697253 178.904 47.0976501 178.86 62.7123133 78.286 121.311916"></polygon>
                    <path d="M181.359,44.6412533 L165.341,53.976564 L120.757,79.9411802 L80.777,103.241859 L6.221,60.0804595 C6.028,59.9641567 5.821,59.8739217 5.628,59.7826841 C5.615,59.7696501 5.602,59.7696501 5.589,59.7566162 C5.409,59.6794151 5.215,59.6012115 5.035,59.5370444 C5.022,59.5370444 5.009,59.5240104 4.996,59.5240104 C4.815,59.4588407 4.648,59.4207415 4.48,59.3816397 C4.454,59.3686057 4.441,59.3686057 4.416,59.3686057 C4.261,59.3295039 4.094,59.3044386 3.926,59.2914047 C3.913,59.2914047 3.9,59.2914047 3.875,59.2783708 C3.72,59.2653368 3.578,59.2653368 3.424,59.2783708 L3.334,59.2783708 C3.179,59.2914047 3.037,59.3044386 2.896,59.3305065 C2.87,59.3435405 2.844,59.3435405 2.819,59.3565744 C2.703,59.3826423 2.574,59.4207415 2.458,59.4598433 C2.303,59.5119791 2.149,59.5891802 2.007,59.6663812 L43.741,35.3570757 L88.299,9.3804282 L102.576,1.06577546 C102.718,0.988574413 102.873,0.9234047 103.027,0.859237598 C103.04,0.859237598 103.053,0.846203655 103.053,0.846203655 C103.169,0.807101828 103.285,0.782036554 103.401,0.755968668 C103.414,0.755968668 103.44,0.742934726 103.466,0.729900783 C103.466,0.729900783 103.466,0.729900783 103.479,0.729900783 C103.582,0.716866841 103.698,0.690798956 103.814,0.677765013 L104.007,0.677765013 C104.046,0.677765013 104.084,0.66473107 104.123,0.66473107 C104.213,0.66473107 104.303,0.677765013 104.394,0.677765013 L104.459,0.677765013 C104.472,0.690798956 104.485,0.690798956 104.511,0.690798956 C104.563,0.690798956 104.614,0.703832898 104.666,0.703832898 C104.756,0.716866841 104.834,0.729900783 104.924,0.742934726 C104.95,0.755968668 104.976,0.755968668 105.001,0.769002611 C105.014,0.769002611 105.04,0.769002611 105.053,0.782036554 C105.092,0.782036554 105.13,0.795070496 105.169,0.808104439 C105.246,0.821138381 105.324,0.847206266 105.414,0.873274151 C105.466,0.886308094 105.517,0.912375979 105.569,0.924407311 C105.582,0.924407311 105.595,0.937441253 105.608,0.937441253 C105.621,0.937441253 105.634,0.950475196 105.647,0.950475196 C105.724,0.976543081 105.815,1.00261097 105.892,1.04071018 C105.969,1.06677807 106.047,1.10487728 106.124,1.14397911 C106.137,1.14397911 106.163,1.15701305 106.176,1.15701305 C106.189,1.170047 106.202,1.170047 106.215,1.18308094 C106.267,1.20914883 106.318,1.22218277 106.37,1.24724804 C106.447,1.29938381 106.525,1.33748303 106.615,1.37658486 C106.679,1.41568668 106.731,1.4537859 106.796,1.47985379 L181.359,44.6412533 Z" id="Shape" fill="#973E9B"></path>
                    <polygon id="Shape" fill="#691787" points="165.341 53.976564 120.757 79.9411802 43.738 35.3570757 88.296 9.37942559"></polygon>
                    <path d="M182.336,46.2995718 C182.335,46.28353 182.335,46.2684909 182.334,46.2524491 C182.333,46.2364073 182.332,46.2203655 182.33,46.2043238 C182.329,46.188282 182.327,46.1722402 182.325,46.1561984 C182.323,46.1401567 182.321,46.1231123 182.318,46.1070705 C182.315,46.0900261 182.313,46.0739843 182.309,46.0579426 C182.306,46.0408982 182.302,46.0238538 182.299,46.0068094 C182.295,45.989765 182.291,45.9727206 182.287,45.9556762 C182.283,45.9386319 182.278,45.9205849 182.273,45.9035405 C182.269,45.8895039 182.265,45.8754674 182.261,45.8614308 L182.261,45.8594256 C182.26,45.8564178 182.259,45.8544125 182.259,45.8514047 C182.254,45.8343603 182.248,45.8173159 182.243,45.8002715 C182.237,45.7832272 182.232,45.7671854 182.226,45.750141 C182.22,45.7340992 182.214,45.7180574 182.208,45.7020157 C182.202,45.6859739 182.196,45.6699321 182.189,45.654893 C182.182,45.6388512 182.176,45.623812 182.169,45.6077702 C182.162,45.5917285 182.155,45.5756867 182.147,45.5606475 C182.139,45.5436031 182.131,45.5265587 182.122,45.5085117 C182.112,45.4894621 182.102,45.4694099 182.092,45.4503603 C182.08,45.4273003 182.066,45.4032376 182.053,45.3801775 L182.051,45.3761671 C182.049,45.3731593 182.047,45.3691488 182.045,45.366141 C182.021,45.3250339 181.996,45.2849295 181.969,45.2448251 C181.949,45.2147467 181.928,45.185671 181.907,45.1565953 C181.893,45.1375457 181.878,45.1184961 181.864,45.0994465 C181.852,45.0834047 181.839,45.0683655 181.826,45.0523238 C181.813,45.0372846 181.801,45.0222454 181.788,45.0072063 C181.775,44.9931697 181.763,44.9781305 181.75,44.964094 L181.74,44.9530653 L181.739,44.9520627 C181.729,44.9410339 181.719,44.9310078 181.71,44.9209817 C181.696,44.9069452 181.682,44.8929086 181.668,44.8798747 C181.653,44.8658381 181.639,44.8528042 181.624,44.8387676 C181.609,44.8257337 181.595,44.8126997 181.58,44.8006684 C181.565,44.7886371 181.551,44.7766057 181.536,44.7645744 C181.522,44.7535457 181.507,44.7415144 181.492,44.7314883 C181.478,44.7204595 181.463,44.7104334 181.449,44.7004073 C181.435,44.6913838 181.421,44.6813577 181.407,44.6723342 C181.393,44.6633107 181.379,44.6542872 181.365,44.6462663 C181.362,44.6442611 181.358,44.6422559 181.355,44.6402507 L80.781,103.239854 C80.917,103.31906 81.047,103.425337 81.164,103.550663 C81.165,103.551666 81.165,103.551666 81.165,103.551666 C81.283,103.676992 81.388,103.820366 81.476,103.972762 C81.477,103.974768 81.478,103.97577 81.478,103.97577 C81.567,104.130172 81.638,104.292595 81.687,104.455018 L81.687,104.456021 C81.736,104.620449 81.763,104.784877 81.763,104.940282 L81.759,106.545462 C81.758,106.699864 81.731,106.830204 81.682,106.93648 L81.681,106.937483 C81.632,107.04376 81.561,107.123969 81.473,107.175102 L182.047,48.5754987 C182.114,48.5363969 182.171,48.4802507 182.217,48.4090653 C182.23,48.3880104 182.243,48.365953 182.254,48.3418903 L182.256,48.3378799 L182.256,48.3368773 C182.264,48.3208355 182.271,48.3037911 182.277,48.2857441 C182.283,48.2686997 182.289,48.2516554 182.294,48.234611 C182.299,48.2185692 182.303,48.2015248 182.307,48.1844804 C182.311,48.1684386 182.314,48.1523969 182.317,48.1363551 C182.32,48.1213159 182.322,48.1052742 182.324,48.0892324 C182.326,48.0741932 182.328,48.0581514 182.329,48.0421097 C182.33,48.0270705 182.331,48.0120313 182.332,47.9959896 C182.333,47.9799478 182.333,47.9649086 182.333,47.9488668 L182.333,47.945859 L182.338,46.3406789 C182.336,46.3296501 182.336,46.314611 182.336,46.2995718 Z" id="Shape" fill="#691787"></path>
                    <path d="M80.779,103.243864 C81.326,103.560689 81.764,104.320668 81.762,104.944292 L81.757,106.549473 C81.755,107.173097 81.314,107.424752 80.768,107.10893 L78.329,105.697253 L18.203,70.8926162 L18.159,86.5072794 L80.724,122.723593 C81.271,123.040418 81.709,123.800397 81.707,124.431039 L81.702,126.209671 C81.7,126.833295 81.259,127.090966 80.713,126.775144 L6.154,83.6157493 C2.879,81.719812 0.235,77.1218381 0.246,73.3490131 L0.274,63.4823185 C0.285,59.7094935 2.946,58.1895352 6.221,60.08447 L80.779,103.243864 Z" id="Shape" fill="#691787"></path>
                    <path d="M78.33,105.697253 L78.286,121.311916 L10.387,81.97247 C8.773,81.0370339 7.78,79.30753 7.786,77.4376606 L7.818,65.9968668 C7.819,65.4845326 8.373,65.1646997 8.816,65.4213681 L78.33,105.697253 Z" id="Shape" fill="#DCDFDF"></path>
                    <polygon id="Shape" fill="#4A4A49" points="147.601 31.6113211 93.654 63.0281358 52.605 86.9524386 65.946 94.6745483 105.926 71.3748721 150.51 45.4102559 166.528 36.0739426 153.19 28.3538381"></polygon>
                    <polygon id="Shape" fill="#4A4A49" points="52.611 86.9494308 52.611 90.8154987 52.611 106.448209 52.611 110.508783 65.946 118.227885 65.946 114.167311 65.946 98.5346005 65.946 94.6685326"></polygon>
                </g>
                <g id="Group">
                    <g id="Shape_51_" transform="translate(0.000000, 236.616188)">
                        <polyline id="Shape" fill="#EB367F" points="86.047 20.3790705 86.047 29.9399687 80.448 33.7709452 77.963 29.9379634 79.59 26.0327937"></polyline>
                        <g id="Group">
                            <path d="M86.149,29.9439791 C86.149,40.9045222 66.949,49.7916658 43.325,49.7916658 C19.701,49.7916658 0.526,40.9045222 0.526,29.9439791 C0.526,29.6502141 0.531,29.36447 0.548,29.070705 L0.447,20.3830809 L3.263,22.8464961 C2.961,23.2014204 2.692,23.5984543 2.442,24.0135352 C2.709,23.6154987 3.002,23.2274883 3.321,22.8464961 C9.468,15.3860679 25.039,10.0872689 43.275,10.0872689 C61.45,10.0872689 77.088,15.3519791 83.27,22.7773159 L86,20.3830809 L86,27.7913734 C86,28.5002193 86.149,29.2170862 86.149,29.9439791 Z" id="Shape" fill="#A3002F"></path>
                            <path d="M0.502,20.3790705 C0.502,31.3416188 19.652,40.2327728 43.275,40.2327728 C66.898,40.2327728 86.047,31.3406162 86.047,20.3790705 C86.047,9.41351436 66.897,0.525368146 43.275,0.525368146 C19.652,0.525368146 0.502,9.41351436 0.502,20.3790705 Z" id="Shape" fill="#D81245"></path>
                        </g>
                    </g>
                    <ellipse id="Oval_2_" fill="#FF557B" cx="43.275" cy="255.420157" rx="19.813" ry="9.19494517"></ellipse>
                    <polygon id="Shape_52_" fill="#FF557B" points="23.462 147.588345 23.462 255.420157 42.393 255.417149 63.086 255.420157 63.086 147.588345 43.275 149.655728"></polygon>
                    <path d="M23.462,147.588345 C23.462,152.667572 32.333,156.779279 43.275,156.779279 C54.216,156.779279 63.087,152.667572 63.087,147.588345 C63.087,142.507112 54.216,138.393399 43.275,138.393399 C32.333,138.392397 23.462,142.507112 23.462,147.588345 Z" id="Shape_53_" fill="#FF768A"></path>
                    <path d="M30.733,147.588345 C30.733,150.803718 36.349,153.406496 43.275,153.406496 C50.201,153.406496 55.816,150.803718 55.816,147.588345 C55.816,144.371969 50.201,141.768188 43.275,141.768188 C36.349,141.768188 30.733,144.370966 30.733,147.588345 Z" id="Shape_54_" fill="#D81245"></path>
                    <path d="M88.218,54.2091697 C88.218,54.329483 88.246,59.7465901 88.252,59.8648982 C92.894,59.4448042 97.55,59.5992063 102.203,59.6172533 C102.204,59.5831645 102.213,59.5500783 102.213,59.5139843 L102.213,28.4540992 C102.213,25.9545901 100.887,23.6445744 98.731,22.3873003 L62.662,1.36655875 C61.656,0.781033943 60.519,0.455185379 59.354,0.421096606 C53.306,0.23862141 48.025,2.19772324 44.046,6.08284073 C36.459,13.4861201 36.272,25.2046371 36.277,26.4970026 L36.277,147.587342 C36.277,147.731718 36.311,147.871081 36.321,148.013452 C40.975,147.788867 45.623,147.45199 50.274,147.157222 L50.274,26.477953 C50.271,25.0271749 50.857,19.0175248 53.808,16.1380261 C54.439,15.5204178 55.458,14.7484073 57.368,14.5127937 L88.218,32.490611 L88.218,54.2091697 Z" id="Shape_55_" fill="#CCCCCC"></path>
                    <ellipse id="Oval_3_" fill="#CCCCCC" cx="43.275" cy="147.588345" rx="6.998" ry="3.24745692"></ellipse>
                    <path d="M39.514,99.0409191 L39.514,306.850089 C39.514,316.713775 51.587,325.268052 69.249,329.505086 L69.245,315.89364 C120.794,329.505086 149.36,303.431185 149.36,277.813473 L149.36,99.0409191 L39.514,99.0409191 Z" id="Shape_56_" fill="#FFFFFF" opacity="0.3"></path>
                    <path d="M39.514,99.7056501 C39.514,113.782308 64.106,125.191018 94.437,125.191018 C124.769,125.191018 149.36,113.783311 149.36,99.7056501 C149.36,85.6219739 124.768,74.2122611 94.437,74.2122611 C64.106,74.2122611 39.514,85.6219739 39.514,99.7056501 Z" id="Shape_57_" fill="#FF557B"></path>
                    <path d="M47.162,94.9633003 C47.162,107.078851 68.328,116.900428 94.436,116.900428 C120.543,116.900428 141.711,107.078851 141.711,94.9633003 C141.711,82.8397285 120.544,73.0201567 94.436,73.0201567 C68.329,73.0201567 47.162,82.8407311 47.162,94.9633003 Z" id="Shape_58_" fill="#D81245"></path>
                    <path d="M141.712,94.9622977 C141.712,82.8387258 124.815,54.7716345 94.437,54.7716345 C63.086,54.7716345 47.163,82.8387258 47.163,94.9622977" id="Shape_59_" fill="#D81245"></path>
                    <ellipse id="Oval_4_" fill="#C41B48" cx="95.215" cy="59.6904439" rx="10.476" ry="4.86166057"></ellipse>
                    <ellipse id="Oval_5_" fill="#CCCCCC" cx="95.215" cy="59.6904439" rx="6.998" ry="3.24645431"></ellipse>
                    <path d="M88.218,39.240188 L88.218,54.2091697 C88.218,54.329483 88.246,59.7465901 88.252,59.8648982 C92.894,59.4448042 97.55,59.5992063 102.203,59.6172533 C102.204,59.5831645 102.213,59.5500783 102.213,59.5139843 L102.213,39.5770653 C97.549,39.4447206 92.883,39.3254099 88.218,39.240188 Z" id="Shape_60_" fill="#CCCCCC"></path>
                </g>
                <g id="Shape_61_" opacity="0.3" transform="translate(55.000000, 124.323760)" fill="#CCCCCC">
                    <g id="Group" transform="translate(0.000000, 6.015666)">
                        <path d="M4.571,125.496815 C2.444,125.496815 0.72,123.727206 0.72,121.544522 L0.72,4.84862663 C0.72,2.66594256 2.444,0.894328982 4.571,0.894328982 C6.698,0.894328982 8.422,2.66594256 8.422,4.84862663 L8.422,121.54352 C8.422,123.726204 6.697,125.496815 4.571,125.496815 Z" id="Shape"></path>
                    </g>
                    <g id="Group" transform="translate(43.000000, 13.033943)">
                        <path d="M4.547,49.2231854 C2.42,49.2231854 0.696,47.4515718 0.696,45.2678851 L0.696,4.02849086 C0.696,1.84580679 2.42,0.0772010444 4.547,0.0772010444 C6.673,0.0772010444 8.398,1.84580679 8.398,4.02849086 L8.398,45.2678851 C8.398,47.4515718 6.674,49.2231854 4.547,49.2231854 Z" id="Shape"></path>
                    </g>
                    <g id="Group" transform="translate(43.000000, 81.211488)">
                        <path d="M4.547,68.1584961 C2.42,68.1584961 0.696,66.3858799 0.696,64.2031958 L0.696,4.84461619 C0.696,2.65892428 2.42,0.889315927 4.547,0.889315927 C6.673,0.889315927 8.398,2.65892428 8.398,4.84461619 L8.398,64.2021932 C8.398,66.3848773 6.674,68.1584961 4.547,68.1584961 Z" id="Shape"></path>
                    </g>
                    <g id="Group" transform="translate(65.000000, 34.088773)">
                        <path d="M4.645,67.7023081 C2.519,67.7023081 0.794,65.9337023 0.794,63.7500157 L0.794,4.39043342 C0.794,2.20875196 2.518,0.437138381 4.645,0.437138381 C6.771,0.437138381 8.496,2.20875196 8.496,4.39043342 L8.496,63.7500157 C8.495,65.9337023 6.771,67.7023081 4.645,67.7023081 Z" id="Shape"></path>
                    </g>
                    <g id="Group" transform="translate(79.000000, 0.000000)">
                        <path d="M3.939,41.1672063 C1.813,41.1672063 0.088,39.3986005 0.088,37.2159164 L0.088,4.00944125 C0.088,1.82475196 1.812,0.0551436031 3.939,0.0551436031 C6.066,0.0551436031 7.79,1.82475196 7.79,4.00944125 L7.79,37.2159164 C7.79,39.3986005 6.065,41.1672063 3.939,41.1672063 Z" id="Shape"></path>
                    </g>
                    <g id="Group" transform="translate(79.000000, 101.263708)">
                        <path d="M3.939,41.1942768 C1.813,41.1942768 0.088,39.4216606 0.088,37.2389765 L0.088,4.03450653 C0.088,1.84881462 1.812,0.0792062663 3.939,0.0792062663 C6.066,0.0792062663 7.79,1.84881462 7.79,4.03450653 L7.79,37.2389765 C7.79,39.4216606 6.065,41.1942768 3.939,41.1942768 Z" id="Shape"></path>
                    </g>
                    <g id="Group" transform="translate(22.000000, 6.015666)">
                        <path d="M4.39,170.058862 C2.264,170.058862 0.539,168.290256 0.539,166.105567 L0.539,4.84862663 C0.539,2.66594256 2.264,0.894328982 4.39,0.894328982 C6.516,0.894328982 8.241,2.66594256 8.241,4.84862663 L8.241,166.105567 C8.24,168.290256 6.517,170.058862 4.39,170.058862 Z" id="Shape"></path>
                    </g>
                </g>
            </g>
        </g>
    </g>
</svg>