<?xml version="1.0" encoding="UTF-8"?>
<svg width="79px" height="51px" viewBox="0 0 79 51" version="1.1" xmlns="http://www.w3.org/2000/svg" xmlns:xlink="http://www.w3.org/1999/xlink">
    <!-- Generator: Sketch 50.2 (55047) - http://www.bohemiancoding.com/sketch -->
    <title>CONECT_my_ws</title>
    <desc>Created with Sketch.</desc>
    <defs></defs>
    <g id="Page-1" stroke="none" stroke-width="1" fill="none" fill-rule="evenodd">
        <g id="Apple-TV" transform="translate(-1082.000000, -315.000000)" fill-rule="nonzero">
            <g id="CONECT" transform="translate(1082.000000, 315.000000)">
                <polygon id="Shape" fill="#DCDFDF" points="35.325 12.224 47.045 19.036 33.065 27.099 21.352 20.291"></polygon>
                <polygon id="Shape" fill="#B2B7B7" points="21.352 20.291 21.368 25.901 33.081 32.708 33.065 27.099"></polygon>
                <path d="M4.089,2.166 C-0.729,4.948 -0.755,9.455 4.025,12.233 L12.545,17.184 L29.982,7.117 L21.462,2.166 C16.681,-0.612 8.9,-0.612 4.089,2.166 Z" id="Shape" fill="#F7BC0E"></path>
                <path d="M0.488,7.598 C0.5,7.727 0.509,7.856 0.532,7.984 C0.551,8.09 0.583,8.194 0.611,8.3 C0.643,8.422 0.673,8.544 0.716,8.666 C0.752,8.767 0.799,8.866 0.843,8.966 C0.898,9.094 0.954,9.222 1.022,9.348 C1.071,9.44 1.131,9.53 1.187,9.621 C1.276,9.765 1.37,9.908 1.476,10.05 C1.538,10.133 1.606,10.216 1.675,10.298 C1.832,10.488 2.007,10.674 2.195,10.857 C2.264,10.924 2.326,10.991 2.398,11.057 C2.515,11.162 2.646,11.264 2.774,11.367 C2.888,11.458 2.997,11.551 3.119,11.64 C3.258,11.741 3.411,11.837 3.56,11.934 C3.714,12.034 3.86,12.137 4.026,12.234 L12.546,17.185 L12.562,22.795 L4.042,17.844 C3.991,17.815 3.942,17.785 3.892,17.755 C3.779,17.687 3.683,17.614 3.576,17.544 C3.426,17.447 3.274,17.35 3.135,17.249 C3.013,17.161 2.904,17.069 2.791,16.978 C2.663,16.875 2.532,16.773 2.414,16.667 C2.391,16.646 2.362,16.626 2.339,16.605 C2.291,16.561 2.258,16.513 2.212,16.469 C2.023,16.286 1.849,16.099 1.691,15.909 C1.657,15.868 1.61,15.829 1.577,15.787 C1.545,15.746 1.523,15.703 1.493,15.661 C1.387,15.52 1.294,15.377 1.204,15.233 C1.167,15.173 1.117,15.114 1.083,15.053 C1.066,15.022 1.056,14.991 1.039,14.96 C0.971,14.834 0.916,14.706 0.86,14.578 C0.827,14.503 0.784,14.43 0.755,14.355 C0.745,14.33 0.742,14.304 0.733,14.278 C0.69,14.157 0.66,14.034 0.628,13.912 C0.606,13.829 0.573,13.747 0.556,13.663 C0.552,13.641 0.553,13.619 0.549,13.597 C0.526,13.469 0.517,13.34 0.505,13.211 C0.497,13.127 0.479,13.043 0.476,12.958 C0.475,12.922 0.475,12.886 0.475,12.85 L0.459,7.24 C0.457,7.358 0.477,7.478 0.488,7.598 Z" id="Shape" fill="#FAA70D"></path>
                <polygon id="Shape" fill="#FAA70D" points="12.544 17.184 12.56 22.794 29.997 12.727 29.981 7.117"></polygon>
                <g id="Group" transform="translate(27.000000, 15.000000)" fill="#40403F">
                    <polygon id="Shape" points="6.991 3.211 9.007 4.382 13.371 1.863 11.356 0.691"></polygon>
                    <polygon id="Shape" points="0.32 7.063 2.335 8.234 6.7 5.714 4.685 4.543"></polygon>
                </g>
                <polygon id="Shape" fill="#767878" points="33.065 27.099 33.081 32.708 47.061 24.646 47.045 19.036"></polygon>
                <path d="M31.33,28.101 L57.231,43.153 C62.018,45.935 69.8,45.935 74.618,43.153 C79.429,40.375 79.455,35.868 74.667,33.086 L48.766,18.034 L47.038,19.032 L33.073,27.103 L31.33,28.101 Z" id="Shape" fill="#F7BC0E"></path>
                <path d="M57.231,43.153 C57.765,43.463 58.347,43.726 58.947,43.967 C59.105,44.03 59.265,44.09 59.426,44.149 C59.798,44.284 60.189,44.392 60.579,44.501 C60.983,44.615 61.391,44.721 61.81,44.807 C62.301,44.908 62.796,45 63.302,45.064 C63.424,45.079 63.545,45.102 63.668,45.115 C64.351,45.188 65.042,45.224 65.734,45.23 C65.844,45.231 65.953,45.232 66.063,45.232 C66.746,45.227 67.428,45.189 68.103,45.119 C68.205,45.108 68.307,45.097 68.409,45.085 C69.079,45.005 69.739,44.891 70.384,44.746 C70.503,44.719 70.619,44.688 70.737,44.659 C71.323,44.514 71.891,44.34 72.44,44.141 C72.539,44.105 72.645,44.077 72.743,44.039 C73.403,43.784 74.033,43.492 74.617,43.155 C77.037,41.758 78.246,39.923 78.241,38.09 L78.257,43.7 C78.262,45.533 77.053,47.368 74.633,48.765 C74.078,49.085 73.483,49.369 72.858,49.616 C72.826,49.629 72.791,49.637 72.759,49.649 C72.661,49.687 72.556,49.715 72.456,49.751 C72.097,49.881 71.739,50.013 71.364,50.12 C71.164,50.177 70.955,50.22 70.751,50.27 C70.633,50.299 70.518,50.329 70.399,50.356 C70.292,50.38 70.189,50.412 70.081,50.434 C69.68,50.517 69.273,50.588 68.862,50.646 C68.717,50.667 68.569,50.678 68.423,50.695 C68.321,50.707 68.22,50.718 68.117,50.729 C67.966,50.745 67.818,50.767 67.667,50.779 C67.265,50.812 66.861,50.834 66.457,50.844 C66.331,50.847 66.204,50.841 66.077,50.842 C65.967,50.843 65.858,50.841 65.748,50.84 C65.565,50.839 65.381,50.844 65.198,50.837 C64.742,50.821 64.287,50.791 63.835,50.746 C63.783,50.741 63.733,50.73 63.681,50.725 C63.557,50.712 63.438,50.69 63.316,50.674 C62.965,50.63 62.612,50.59 62.268,50.528 C62.115,50.5 61.975,50.449 61.824,50.418 C61.403,50.331 60.998,50.225 60.593,50.111 C60.379,50.051 60.15,50.016 59.941,49.949 C59.768,49.893 59.609,49.82 59.44,49.759 C59.278,49.7 59.119,49.641 58.961,49.577 C58.361,49.336 57.779,49.073 57.245,48.763 L31.344,33.711 L31.328,28.101 L57.231,43.153 Z" id="Shape" fill="#FAA70D"></path>
            </g>
        </g>
    </g>
</svg>