<?xml version="1.0" encoding="UTF-8"?>
<svg width="96px" height="212px" viewBox="0 0 96 212" version="1.1" xmlns="http://www.w3.org/2000/svg" xmlns:xlink="http://www.w3.org/1999/xlink">
    <!-- Generator: Sketch 50.2 (55047) - http://www.bohemiancoding.com/sketch -->
    <title>hobbies_suc_my_ws</title>
    <desc>Created with Sketch.</desc>
    <defs>
        <path d="M39.03,0.646 C17.548,0.646 0.133,8.71 0.133,18.658 C0.133,28.599 17.548,36.666 39.03,36.666 C60.511,36.666 77.926,28.598 77.926,18.658 C77.926,8.71 60.511,0.646 39.03,0.646 Z" id="path-1"></path>
    </defs>
    <g id="Page-1" stroke="none" stroke-width="1" fill="none" fill-rule="evenodd">
        <g id="Apple-TV" transform="translate(-240.000000, -447.000000)">
            <g id="hobbies_suc" transform="translate(240.000000, 447.000000)">
                <path d="M58.268,182.167 C57.888,182.209 57.508,182.589 57.118,182.61 C56.696,182.642 56.274,183 55.842,183 L55.779,183 C54.935,183 54.091,182.852 53.247,182.905 C52.825,182.926 52.392,182.773 51.96,182.794 C50.662,182.857 49.354,182.813 48.036,182.813 C46.285,182.813 44.544,182.748 42.846,182.664 C41.137,182.569 39.449,182.432 37.803,182.263 C41.094,181.324 44.523,180.754 48.036,180.754 C51.548,180.754 54.977,181.228 58.268,182.167 Z" id="Shape" fill="#D0D0C7" fill-rule="nonzero"></path>
                <path d="M96,160.656 L96,189.688 C96,201.852 74.416,211.752 48.127,211.752 C21.774,211.752 0,201.325 0,189.721 L0,160.814 C0,171.321 16.306,180.099 37.669,182.251 C39.346,182.419 41.075,182.557 42.837,182.641 C44.535,182.725 46.281,182.768 48.032,182.768 C49.351,182.768 50.661,182.694 51.959,182.62 C52.391,182.599 52.825,182.926 53.247,182.905 C54.091,182.852 54.936,183 55.78,183 L55.843,183 C56.276,183 56.698,182.642 57.119,182.61 C57.531,182.589 57.935,182.383 58.346,182.341 C79.793,180.178 96,171.237 96,160.656 Z" id="Shape" fill="#C7C3B7" fill-rule="nonzero"></path>
                <path d="M95.782,160.656 C95.782,171.237 79.715,180.004 58.268,182.167 C57.888,182.209 57.508,182.589 57.118,182.61 C56.696,182.642 56.274,183 55.842,183 L55.779,183 C54.935,183 54.091,182.852 53.247,182.905 C52.825,182.926 52.392,182.773 51.96,182.794 C50.662,182.857 49.354,182.813 48.036,182.813 C46.285,182.813 44.544,182.748 42.846,182.664 C41.137,182.569 39.449,182.432 37.803,182.263 C35.788,182.063 33.826,181.788 31.916,181.472 C30.777,181.282 29.659,181.065 28.561,180.844 C26.609,180.443 24.721,179.976 22.917,179.47 C15.691,177.434 9.751,174.531 5.774,171.05 C5.447,170.765 5.12,170.469 4.814,170.174 C4.297,169.668 3.822,169.161 3.39,168.644 C1.46,166.323 0.373,163.802 0.288,161.154 C0.288,161.038 0.277,160.429 0.277,160.313 L18.845,156 L37.792,156 L58.691,157.495 L95.782,160.656 Z" id="Shape" fill="#D0D0C7" fill-rule="nonzero"></path>
                <path d="M95.782,160.656 C95.782,171.237 79.715,180.004 58.268,182.167 C57.888,182.209 57.508,182.589 57.118,182.61 C56.696,182.642 56.274,183 55.842,183 L55.779,183 C54.935,183 54.091,182.852 53.247,182.905 C52.825,182.926 52.392,182.773 51.96,182.794 C50.662,182.857 49.354,182.813 48.036,182.813 C46.285,182.813 44.544,182.748 42.846,182.664 C41.137,182.569 39.449,182.432 37.803,182.263 C35.788,182.063 33.826,181.788 31.916,181.472 C30.777,181.282 29.659,181.065 28.561,180.844 C26.609,180.443 24.721,179.976 22.917,179.47 C15.733,177.413 9.783,174.5 5.774,171.05 C5.447,170.765 5.12,170.469 4.814,170.174 C4.297,169.668 3.822,169.161 3.39,168.644 C1.417,166.323 0.271,163.791 0.145,161.154 C0.145,161.038 0.001,160.932 0.001,160.816 L0.001,160.658 C0.001,148.452 21.529,138.546 47.903,138.546 C74.265,138.545 95.782,148.451 95.782,160.656 Z" id="Shape" fill="#EDEDE5" fill-rule="nonzero"></path>
                <path d="M48.03,142.646 C26.548,142.646 9.133,150.71 9.133,160.658 C9.133,170.599 26.548,178.666 48.03,178.666 C69.511,178.666 86.926,170.598 86.926,160.658 C86.926,150.71 69.511,142.646 48.03,142.646 Z" id="Shape_8_" fill="#D0D0C7" fill-rule="nonzero"></path>
                <g id="Clipped_4_" transform="translate(9.000000, 142.000000)">
                    <g id="Group_2_-Clipped">
                        <mask id="mask-2" fill="white">
                            <use xlink:href="#path-1"></use>
                        </mask>
                        <g id="path-1_4_"></g>
                        <g id="Group_2_" mask="url(#mask-2)">
                            <g transform="translate(0.000000, 14.000000)" id="Group">
                                <g>
                                    <path d="M0.133,18.639 C0.133,28.581 17.548,36.646 39.03,36.646 C60.511,36.646 77.926,28.58 77.926,18.639 C77.926,8.691 60.511,0.627 39.03,0.627 C17.548,0.627 0.133,8.691 0.133,18.639 Z" id="Shape_7_" fill="#FFBC00" fill-rule="nonzero"></path>
                                    <ellipse id="Oval_19_" fill="#FF7E00" fill-rule="nonzero" cx="39.029" cy="18.639" rx="14.69" ry="6.8"></ellipse>
                                </g>
                            </g>
                        </g>
                    </g>
                </g>
                <g id="Group" transform="translate(28.000000, 0.000000)" fill="#00A99D" fill-rule="nonzero">
                    <rect id="Rectangle-path" x="28.407" y="34.053" width="2.277" height="143.855"></rect>
                    <path d="M37.171,14.026 C37.171,24.557 29.545,38.607 29.545,38.607 C29.545,38.607 21.919,24.556 21.919,14.026 C21.919,3.495 25.334,0.472 29.545,0.472 C33.757,0.473 37.171,3.496 37.171,14.026 Z" id="Shape"></path>
                    <path d="M17.049,30.621 C24.66,37.899 29.544,53.121 29.544,53.121 C29.544,53.121 14.119,48.923 6.507,41.645 C-1.104,34.367 -0.929,29.811 1.981,26.766 C4.893,23.722 9.438,23.343 17.049,30.621 Z" id="Shape"></path>
                    <path d="M42.04,30.621 C34.429,37.899 29.544,53.121 29.544,53.121 C29.544,53.121 44.97,48.923 52.581,41.645 C60.192,34.367 60.017,29.811 57.106,26.766 C54.196,23.722 49.651,23.343 42.04,30.621 Z" id="Shape"></path>
                    <path d="M17.049,56.314 C24.66,63.591 29.544,78.814 29.544,78.814 C29.544,78.814 14.119,74.616 6.507,67.338 C-1.104,60.06 -0.929,55.503 1.981,52.459 C4.893,49.415 9.438,49.036 17.049,56.314 Z" id="Shape"></path>
                    <path d="M42.04,56.314 C34.429,63.591 29.544,78.814 29.544,78.814 C29.544,78.814 44.97,74.616 52.581,67.338 C60.192,60.06 60.017,55.503 57.106,52.459 C54.196,49.415 49.651,49.036 42.04,56.314 Z" id="Shape"></path>
                    <path d="M17.049,84.725 C24.66,92.003 29.544,107.225 29.544,107.225 C29.544,107.225 14.119,103.027 6.507,95.749 C-1.104,88.471 -0.929,83.915 1.981,80.87 C4.893,77.826 9.438,77.448 17.049,84.725 Z" id="Shape"></path>
                    <path d="M42.04,84.725 C34.429,92.003 29.544,107.225 29.544,107.225 C29.544,107.225 44.97,103.027 52.581,95.749 C60.192,88.471 60.017,83.915 57.106,80.87 C54.196,77.826 49.651,77.448 42.04,84.725 Z" id="Shape"></path>
                    <path d="M17.049,113.137 C24.66,120.415 29.544,135.637 29.544,135.637 C29.544,135.637 14.119,131.439 6.507,124.161 C-1.104,116.884 -0.929,112.327 1.981,109.282 C4.893,106.238 9.438,105.859 17.049,113.137 Z" id="Shape"></path>
                    <path d="M42.04,113.137 C34.429,120.415 29.544,135.637 29.544,135.637 C29.544,135.637 44.97,131.439 52.581,124.161 C60.192,116.884 60.017,112.327 57.106,109.282 C54.196,106.238 49.651,105.859 42.04,113.137 Z" id="Shape"></path>
                    <path d="M17.049,141.548 C24.66,148.826 29.544,164.048 29.544,164.048 C29.544,164.048 14.119,159.85 6.507,152.572 C-1.104,145.294 -0.929,140.737 1.981,137.693 C4.893,134.649 9.438,134.27 17.049,141.548 Z" id="Shape"></path>
                    <path d="M42.04,141.548 C34.429,148.826 29.544,164.048 29.544,164.048 C29.544,164.048 44.97,159.85 52.581,152.572 C60.192,145.294 60.017,140.737 57.106,137.693 C54.196,134.649 49.651,134.27 42.04,141.548 Z" id="Shape"></path>
                </g>
                <g id="Group" transform="translate(9.000000, 12.000000)" fill="#4BDBCA" fill-rule="nonzero">
                    <rect id="Rectangle-path" x="28.378" y="34.211" width="2.277" height="131.698"></rect>
                    <path d="M37.143,14.183 C37.143,24.714 29.517,38.764 29.517,38.764 C29.517,38.764 21.891,24.714 21.891,14.183 C21.891,3.652 25.305,0.629 29.517,0.629 C33.728,0.629 37.143,3.652 37.143,14.183 Z" id="Shape"></path>
                    <path d="M17.021,30.778 C24.632,38.056 29.517,53.278 29.517,53.278 C29.517,53.278 14.091,49.08 6.48,41.802 C-1.131,34.524 -0.956,29.967 1.954,26.923 C4.865,23.879 9.41,23.5 17.021,30.778 Z" id="Shape"></path>
                    <path d="M42.012,30.778 C34.401,38.056 29.517,53.278 29.517,53.278 C29.517,53.278 44.943,49.08 52.554,41.802 C60.165,34.524 59.99,29.967 57.079,26.923 C54.168,23.879 49.623,23.5 42.012,30.778 Z" id="Shape"></path>
                    <path d="M17.021,56.471 C24.632,63.749 29.517,78.971 29.517,78.971 C29.517,78.971 14.091,74.773 6.48,67.495 C-1.131,60.217 -0.956,55.66 1.954,52.616 C4.865,49.572 9.41,49.193 17.021,56.471 Z" id="Shape"></path>
                    <path d="M42.012,56.471 C34.401,63.749 29.517,78.971 29.517,78.971 C29.517,78.971 44.943,74.773 52.554,67.495 C60.165,60.217 59.99,55.66 57.079,52.616 C54.168,49.572 49.623,49.193 42.012,56.471 Z" id="Shape"></path>
                    <path d="M17.021,84.882 C24.632,92.159 29.517,107.382 29.517,107.382 C29.517,107.382 14.091,103.184 6.48,95.906 C-1.131,88.628 -0.956,84.071 1.954,81.027 C4.865,77.983 9.41,77.604 17.021,84.882 Z" id="Shape"></path>
                    <path d="M42.012,84.882 C34.401,92.159 29.517,107.382 29.517,107.382 C29.517,107.382 44.943,103.184 52.554,95.906 C60.165,88.628 59.99,84.071 57.079,81.027 C54.168,77.983 49.623,77.604 42.012,84.882 Z" id="Shape"></path>
                    <path d="M17.021,113.293 C24.632,120.57 29.517,135.793 29.517,135.793 C29.517,135.793 14.091,131.595 6.48,124.317 C-1.131,117.039 -0.956,112.482 1.954,109.438 C4.865,106.394 9.41,106.015 17.021,113.293 Z" id="Shape"></path>
                    <path d="M42.012,113.293 C34.401,120.57 29.517,135.793 29.517,135.793 C29.517,135.793 44.943,131.595 52.554,124.317 C60.165,117.039 59.99,112.482 57.079,109.438 C54.168,106.394 49.623,106.015 42.012,113.293 Z" id="Shape"></path>
                    <path d="M17.021,141.704 C24.632,148.982 29.517,164.204 29.517,164.204 C29.517,164.204 14.091,160.006 6.48,152.728 C-1.131,145.45 -0.956,140.894 1.954,137.849 C4.865,134.805 9.41,134.427 17.021,141.704 Z" id="Shape"></path>
                    <path d="M42.012,141.704 C34.401,148.982 29.517,164.204 29.517,164.204 C29.517,164.204 44.943,160.006 52.554,152.728 C60.165,145.45 59.99,140.894 57.079,137.849 C54.168,134.805 49.623,134.427 42.012,141.704 Z" id="Shape"></path>
                </g>
            </g>
        </g>
    </g>
</svg>