<?xml version="1.0" encoding="UTF-8"?>
<svg width="150px" height="116px" viewBox="0 0 150 116" version="1.1" xmlns="http://www.w3.org/2000/svg" xmlns:xlink="http://www.w3.org/1999/xlink">
    <!-- Generator: Sketch 50.2 (55047) - http://www.bohemiancoding.com/sketch -->
    <title>hobbies_ar_my_ws</title>
    <desc>Created with Sketch.</desc>
    <defs></defs>
    <g id="Page-1" stroke="none" stroke-width="1" fill="none" fill-rule="evenodd">
        <g id="Apple-TV" transform="translate(-975.000000, -548.000000)" fill-rule="nonzero">
            <g id="hobbies_ar" transform="translate(975.000000, 547.000000)">
                <path d="M127.646,39.514 C128.245,39.248 128.839,39.002 129.42,38.803 C129.456,38.791 129.49,38.782 129.526,38.77 C130.035,38.599 130.532,38.47 131.026,38.35 C131.309,38.281 131.589,38.223 131.867,38.17 C132.234,38.101 132.598,38.043 132.955,38.003 C133.162,37.979 133.368,37.955 133.572,37.941 C134.02,37.91 134.46,37.901 134.891,37.915 C134.99,37.918 135.092,37.912 135.19,37.917 C135.711,37.947 136.215,38.013 136.707,38.108 C136.83,38.132 136.949,38.164 137.071,38.192 C137.457,38.28 137.834,38.389 138.2,38.518 C138.316,38.559 138.434,38.596 138.547,38.641 C139.012,38.824 139.465,39.032 139.894,39.281 L111.561,22.815 C111.524,22.793 111.486,22.772 111.448,22.751 C111.115,22.563 110.771,22.395 110.417,22.247 C110.351,22.22 110.281,22.202 110.215,22.176 C110.101,22.131 109.983,22.094 109.867,22.053 C109.689,21.99 109.515,21.918 109.332,21.864 C109.139,21.808 108.937,21.773 108.739,21.727 C108.617,21.699 108.498,21.667 108.374,21.643 C108.307,21.63 108.245,21.609 108.178,21.598 C107.774,21.528 107.36,21.479 106.937,21.453 C106.911,21.451 106.883,21.454 106.857,21.452 C106.759,21.447 106.656,21.453 106.558,21.449 C106.234,21.439 105.911,21.426 105.577,21.441 C105.466,21.446 105.35,21.467 105.238,21.475 C105.035,21.489 104.828,21.513 104.621,21.537 C104.428,21.559 104.241,21.565 104.045,21.595 C103.878,21.621 103.702,21.672 103.533,21.704 C103.255,21.756 102.975,21.815 102.692,21.884 C102.539,21.921 102.392,21.939 102.238,21.981 C101.893,22.075 101.544,22.185 101.193,22.303 C101.157,22.315 101.122,22.324 101.086,22.336 C100.668,22.479 100.247,22.637 99.82,22.814 C99.652,22.884 99.481,22.971 99.312,23.046 C99.151,23.118 98.99,23.19 98.828,23.267 C98.206,23.561 97.58,23.877 96.944,24.244 C89.504,28.539 82.065,32.835 74.625,37.13 C66.588,41.77 57.796,45.825 51.362,52.656 C49.293,54.852 47.442,57.254 45.85,59.818 C41.962,66.08 39.181,73.787 39.203,81.224 C39.221,87.704 41.508,92.262 45.197,94.406 L73.53,110.871 C69.841,108.728 67.555,104.169 67.536,97.689 C67.534,96.941 67.57,96.182 67.627,95.418 C67.645,95.178 67.674,94.936 67.698,94.695 C67.746,94.204 67.806,93.711 67.877,93.216 C67.955,92.673 68.053,92.126 68.158,91.579 C68.23,91.205 68.294,90.831 68.378,90.456 C68.456,90.107 68.547,89.758 68.635,89.408 C68.758,88.919 68.884,88.43 69.026,87.94 C69.108,87.658 69.196,87.376 69.284,87.095 C69.457,86.546 69.64,85.997 69.836,85.45 C69.917,85.224 69.994,84.999 70.079,84.773 C70.363,84.018 70.662,83.265 70.988,82.518 C71.026,82.431 71.069,82.345 71.107,82.258 C71.403,81.59 71.717,80.927 72.044,80.269 C72.146,80.063 72.25,79.859 72.355,79.655 C72.675,79.033 73.008,78.417 73.355,77.808 C73.423,77.688 73.487,77.566 73.556,77.447 C73.969,76.735 74.401,76.035 74.848,75.346 C74.979,75.145 75.115,74.948 75.248,74.749 C75.579,74.254 75.917,73.766 76.264,73.286 C76.452,73.025 76.643,72.767 76.836,72.511 C77.138,72.11 77.449,71.718 77.762,71.328 C78.026,71 78.291,70.673 78.562,70.354 C78.818,70.053 79.081,69.762 79.342,69.47 C79.79,68.969 80.248,68.483 80.713,68.009 C81.002,67.715 81.29,67.42 81.586,67.137 C81.816,66.917 82.049,66.701 82.282,66.488 C82.664,66.14 83.051,65.803 83.442,65.475 C83.676,65.279 83.909,65.081 84.146,64.893 C84.571,64.554 85.004,64.234 85.438,63.92 C85.645,63.77 85.85,63.612 86.059,63.469 C86.705,63.026 87.357,62.606 88.019,62.224 C96.265,57.463 117.03,45.474 125.277,40.713 C125.913,40.346 126.539,40.029 127.161,39.736 C127.325,39.659 127.486,39.586 127.646,39.514 Z" id="Shape" fill="#F7BC0E"></path>
                <g id="Group">
                    <polygon id="Shape" fill="#E6E6E6" points="125.749 29.894 125.802 48.56 129.859 46.218 129.806 27.551"></polygon>
                    <path d="M22.283,13.274 C23.524,12.557 24.817,11.889 26.147,11.258 C26.59,11.048 27.058,10.866 27.509,10.665 C28.294,10.316 29.066,9.954 29.877,9.634 C30.018,9.578 30.166,9.532 30.308,9.477 C30.616,9.358 30.932,9.25 31.243,9.135 C32.291,8.748 33.356,8.384 34.439,8.044 C34.812,7.927 35.182,7.808 35.558,7.696 C35.808,7.622 36.05,7.537 36.302,7.465 C36.741,7.34 37.203,7.253 37.647,7.135 C38.741,6.845 39.84,6.568 40.959,6.323 C41.256,6.258 41.54,6.169 41.839,6.107 C42.267,6.018 42.709,5.963 43.14,5.881 C44.079,5.702 45.021,5.536 45.973,5.389 C46.355,5.329 46.728,5.245 47.111,5.191 C47.511,5.134 47.92,5.107 48.321,5.056 C49.21,4.942 50.101,4.844 50.998,4.757 C51.429,4.715 51.853,4.649 52.285,4.613 C52.663,4.582 53.046,4.579 53.425,4.552 C54.33,4.489 55.235,4.443 56.143,4.406 C56.605,4.388 57.064,4.344 57.526,4.332 C57.867,4.323 58.208,4.341 58.549,4.337 C59.529,4.323 60.507,4.333 61.487,4.35 C61.981,4.359 62.475,4.34 62.969,4.357 C63.235,4.366 63.499,4.399 63.765,4.41 C64.995,4.463 66.217,4.553 67.439,4.655 C67.911,4.694 68.389,4.703 68.86,4.749 C69.057,4.769 69.251,4.798 69.447,4.819 C69.791,4.856 70.13,4.901 70.473,4.941 C71.695,5.086 72.909,5.255 74.114,5.45 C74.435,5.502 74.758,5.548 75.077,5.604 C75.249,5.634 75.425,5.656 75.597,5.687 C76.175,5.791 76.733,5.936 77.306,6.052 C78.259,6.245 79.213,6.434 80.149,6.659 C80.864,6.831 81.559,7.033 82.263,7.224 C83.163,7.469 84.062,7.712 84.941,7.988 C85.149,8.053 85.368,8.102 85.574,8.169 C86.638,8.514 87.684,8.884 88.712,9.276 C88.829,9.32 88.94,9.371 89.056,9.417 C90.243,9.876 91.397,10.373 92.528,10.895 C92.85,11.043 93.169,11.193 93.486,11.346 C94.705,11.935 95.9,12.548 97.042,13.211 L125.748,29.893 C125.748,29.893 125.801,48.554 125.801,48.56 C125.8,48.243 123.045,46.958 122.77,46.799 C120.31,45.369 117.85,43.939 115.389,42.51 C110.118,39.447 104.848,36.384 99.577,33.321 C87.212,26.135 72.83,22.652 58.496,22.888 C46.52,23.085 34.598,25.931 23.815,31.143 C15.262,35.278 6.68,43.682 6.709,53.824 L6.656,35.157 C6.636,27.234 11.859,19.293 22.283,13.274 Z" id="Shape" fill="#D2D1D1"></path>
                    <polygon id="Shape" fill="#E6E6E6" points="46.561 75.613 46.614 94.28 50.671 91.937 50.618 73.271"></polygon>
                    <path d="M0.992,36.201 C1.008,36.499 1.026,36.797 1.056,37.094 C1.082,37.35 1.116,37.605 1.152,37.86 C1.193,38.155 1.237,38.45 1.291,38.744 C1.338,39.002 1.393,39.259 1.451,39.517 C1.515,39.803 1.583,40.089 1.66,40.375 C1.729,40.632 1.805,40.889 1.884,41.145 C1.972,41.43 2.066,41.715 2.166,41.999 C2.255,42.251 2.35,42.501 2.449,42.752 C2.567,43.05 2.692,43.346 2.824,43.643 C2.934,43.89 3.046,44.135 3.166,44.381 C3.31,44.676 3.463,44.97 3.621,45.263 C3.748,45.5 3.877,45.737 4.014,45.972 C4.217,46.322 4.436,46.67 4.66,47.017 C4.792,47.222 4.919,47.428 5.058,47.632 C5.331,48.031 5.625,48.426 5.925,48.82 C6.034,48.964 6.134,49.109 6.247,49.252 C6.718,49.848 7.227,50.436 7.761,51.018 C7.906,51.176 8.061,51.331 8.21,51.487 C8.626,51.923 9.06,52.356 9.512,52.783 C9.719,52.979 9.925,53.174 10.14,53.368 C10.41,53.611 10.688,53.852 10.97,54.092 C11.235,54.318 11.502,54.544 11.777,54.766 C12.071,55.003 12.373,55.238 12.679,55.471 C12.966,55.691 13.254,55.91 13.551,56.126 C13.868,56.356 14.194,56.583 14.523,56.809 C14.831,57.021 15.139,57.233 15.458,57.442 C15.799,57.665 16.15,57.885 16.503,58.104 C16.948,58.381 17.389,58.66 17.853,58.93 L46.559,75.612 L46.612,94.279 C35.519,87.833 23.434,82.048 13.152,74.357 C11.15,72.859 9.263,71.202 7.59,69.341 C4.026,65.376 1.34,60.267 1.044,54.866 C1.035,54.695 1.012,54.525 1.007,54.355 C1.002,54.183 0.999,54.011 0.999,53.838 L0.946,35.171 C0.948,35.515 0.973,35.858 0.992,36.201 Z" id="Shape" fill="#D2D1D1"></path>
                    <path d="M18.252,10.932 C-4.629,24.142 -4.878,45.72 17.855,58.931 L46.561,75.613 L50.618,73.271 L21.912,56.589 C1.395,44.666 1.632,25.198 22.283,13.275 C42.916,1.363 76.526,1.289 97.043,13.212 L125.749,29.894 L129.806,27.551 L101.1,10.869 C78.368,-2.342 41.133,-2.279 18.252,10.932 Z" id="Shape" fill="#E6E6E6"></path>
                </g>
                <g id="Group" transform="translate(40.000000, 65.000000)">
                    <path d="M23.326,15.529 C19.937,17.486 17.543,21.697 17.554,25.591 L17.604,43.127 C17.615,47.022 20.025,48.395 23.414,46.438 L32.11,41.417 L32.022,10.508 L23.326,15.529 Z" id="Shape" fill="#2E2C2C"></path>
                    <path d="M1.041,15.399 C1.067,15.169 1.098,14.941 1.137,14.715 C1.746,11.11 3.948,7.658 7.138,5.822 C9.149,4.665 11.156,3.502 13.166,2.342 C13.97,1.878 14.774,1.414 15.578,0.949 L32.023,10.506 L23.327,15.527 C22.905,15.771 22.499,16.049 22.098,16.369 C21.716,16.674 21.351,17.007 20.981,17.393 C20.639,17.751 20.316,18.133 20.003,18.552 C19.708,18.95 19.436,19.367 19.188,19.797 C19.172,19.824 19.157,19.852 19.142,19.879 C18.899,20.308 18.678,20.75 18.479,21.219 C18.283,21.684 18.115,22.159 17.973,22.659 C17.838,23.137 17.734,23.62 17.659,24.137 C17.59,24.623 17.553,25.109 17.555,25.59 L17.604,42.887 L17.628,43.395 C17.641,43.766 17.66,44.131 17.72,44.467 C17.791,44.856 17.895,45.204 18.027,45.516 C18.035,45.535 18.042,45.554 18.051,45.572 C18.168,45.839 18.316,46.064 18.475,46.272 C18.522,46.333 18.569,46.394 18.619,46.45 C18.802,46.652 19,46.833 19.226,46.964 C15.524,44.812 11.822,42.661 8.12,40.51 C5.785,39.153 1.935,37.798 1.28,34.934 C0.92,33.358 1.178,31.665 1.158,30.066 C1.121,27.188 1.084,24.31 1.049,21.432 C1.021,19.465 0.819,17.376 1.041,15.399 Z" id="Shape" fill="#4E4A41"></path>
                </g>
                <path d="M108.53,87.545 C107.851,86.823 107.253,85.983 106.746,85.033 L78.413,68.568 C79.427,70.469 80.806,71.925 82.468,72.891 L110.801,89.356 C109.969,88.873 109.209,88.267 108.53,87.545 Z" id="Shape" fill="#0E2F54"></path>
                <g id="Group" transform="translate(114.000000, 24.000000)">
                    <path d="M17.428,15.933 L17.516,46.842 L26.212,41.821 C29.601,39.864 31.996,35.717 31.985,31.833 L31.935,14.287 C31.924,10.403 29.514,8.955 26.125,10.912 L17.428,15.933 Z" id="Shape" fill="#2E2C2C"></path>
                    <polygon id="Shape" fill="#592E2A" points="17.428 15.933 0.983 6.376 1.07 37.285 17.516 46.842"></polygon>
                    <path d="M9.632,1.259 C10.714,0.724 11.807,0.377 12.793,0.519 C14.428,0.754 16.073,2.143 17.492,2.968 C18.884,3.777 20.276,4.586 21.668,5.395 C24.175,6.852 26.682,8.309 29.189,9.766 C29.555,9.979 29.921,10.192 30.287,10.404 C30.033,10.256 29.753,10.155 29.423,10.094 C29.126,10.041 28.807,10.032 28.44,10.072 C28.095,10.112 27.731,10.199 27.334,10.341 C26.947,10.481 26.543,10.67 26.124,10.912 L17.427,15.933 L0.982,6.376 C2.49,5.505 3.999,4.634 5.507,3.763 C6.656,3.101 8.133,2 9.632,1.259 Z" id="Shape" fill="#2E2C2C"></path>
                </g>
                <path d="M96.946,24.247 C97.582,23.88 98.208,23.563 98.83,23.27 C98.992,23.193 99.153,23.121 99.314,23.049 C102.949,21.431 107.822,20.71 111.449,22.755 C111.487,22.776 111.524,22.796 111.562,22.818 L139.895,39.283 C139.466,39.034 139.014,38.826 138.548,38.643 C138.434,38.598 138.316,38.561 138.201,38.52 C137.835,38.391 137.458,38.283 137.072,38.194 C136.951,38.166 136.832,38.134 136.708,38.11 C136.216,38.015 135.711,37.948 135.191,37.919 C135.093,37.913 134.991,37.92 134.892,37.916 C134.461,37.902 134.021,37.911 133.573,37.942 C133.37,37.956 133.163,37.98 132.956,38.004 C132.598,38.044 132.235,38.102 131.868,38.171 C131.59,38.223 131.31,38.282 131.027,38.351 C130.533,38.471 130.036,38.6 129.527,38.771 C129.491,38.783 129.457,38.791 129.421,38.804 C128.839,39.003 128.245,39.248 127.647,39.515 C127.486,39.587 127.326,39.659 127.164,39.736 C126.543,40.03 125.916,40.346 125.28,40.713 C121.483,42.905 115.03,46.631 108.369,50.476 L75.896,36.4 C83.914,31.771 92.363,26.893 96.946,24.247 Z" id="Shape" fill="#F7BC0E"></path>
                <path d="M125.279,40.713 C136.622,34.164 145.851,39.423 145.888,52.457 C145.925,65.501 136.756,81.381 125.413,87.93 C117.167,92.691 96.401,104.68 88.155,109.441 C76.804,115.995 67.575,110.736 67.538,97.692 C67.501,84.658 76.67,68.777 88.021,62.224 C96.268,57.462 117.033,45.474 125.279,40.713 Z" id="Shape" fill="#E6E6E6"></path>
                <path d="M141.799,35.89 C136.649,32.924 130.091,33.445 123.335,37.344 L86.076,58.855 C73.459,66.139 63.607,83.204 63.648,97.704 C63.669,105.435 66.504,111.318 71.628,114.267 C73.834,115.536 76.297,116.167 78.925,116.167 C82.434,116.167 86.235,115.043 90.101,112.81 C96.175,109.303 121.938,94.427 127.358,91.299 C139.971,84.018 149.819,66.951 149.778,52.446 C149.757,44.718 146.922,38.838 141.799,35.89 Z M123.468,84.561 C119.968,86.58 93.377,101.933 86.211,106.072 C82.017,108.493 78.116,109.026 75.509,107.522 C72.893,106.016 71.444,102.521 71.43,97.681 C71.397,86.107 79.887,71.413 89.967,65.593 L127.226,44.081 C131.416,41.662 135.316,41.137 137.919,42.633 C140.535,44.139 141.984,47.631 141.998,52.468 C142.03,64.047 133.544,78.743 123.468,84.561 Z" id="Shape" fill="#FAA70D"></path>
                <g id="Group" transform="translate(82.000000, 47.000000)">
                    <path d="M33.992,17.734 C33.396,18.078 32.908,18.924 32.91,19.619 C32.912,20.304 33.403,20.584 33.999,20.24 L53.012,9.262 C53.617,8.913 54.096,8.072 54.095,7.387 C54.093,6.692 53.611,6.407 53.005,6.756 L33.992,17.734 Z" id="Shape" fill="#D2D1D1"></path>
                    <path d="M34.025,29.353 C33.428,29.697 32.941,30.543 32.943,31.228 C32.945,31.913 33.436,32.193 34.032,31.849 L53.045,20.872 C53.65,20.523 54.129,19.682 54.128,18.997 C54.126,18.312 53.644,18.027 53.038,18.376 L34.025,29.353 Z" id="Shape" fill="#D2D1D1"></path>
                    <path d="M34.008,23.543 C33.412,23.887 32.924,24.732 32.926,25.418 C32.928,26.114 33.419,26.383 34.015,26.039 L53.029,15.062 C53.634,14.713 54.113,13.883 54.111,13.187 C54.109,12.502 53.627,12.217 53.022,12.566 L34.008,23.543 Z" id="Shape" fill="#D2D1D1"></path>
                    <path d="M33.975,11.934 C33.379,12.278 32.891,13.113 32.893,13.809 C32.895,14.494 33.386,14.774 33.982,14.43 L52.996,3.453 C53.601,3.103 54.08,2.263 54.078,1.578 C54.076,0.882 53.594,0.608 52.989,0.957 L33.975,11.934 Z" id="Shape" fill="#D2D1D1"></path>
                    <path d="M2.954,26.146 C1.539,26.963 0.403,28.93 0.408,30.556 L0.415,33.164 C0.42,34.78 1.563,35.442 2.978,34.625 L5.248,33.314 C6.663,32.497 7.799,30.52 7.795,28.904 L7.788,26.296 C7.783,24.67 6.64,24.018 5.225,24.835 L2.954,26.146 Z" id="Shape" fill="#D71846"></path>
                </g>
            </g>
        </g>
    </g>
</svg>