<?xml version="1.0" encoding="UTF-8"?>
<svg width="105px" height="175px" viewBox="0 0 105 175" version="1.1" xmlns="http://www.w3.org/2000/svg" xmlns:xlink="http://www.w3.org/1999/xlink">
    <!-- Generator: Sketch 50.2 (55047) - http://www.bohemiancoding.com/sketch -->
    <title>hobbies_tea_my_ws</title>
    <desc>Created with Sketch.</desc>
    <defs>
        <path d="M31.871,0.13 C14.314,0.13 0.081,6.721 0.081,14.851 C0.081,22.976 14.314,29.569 31.871,29.569 C49.427,29.569 63.66,22.975 63.66,14.851 C63.66,6.721 49.427,0.13 31.871,0.13 Z" id="path-1"></path>
    </defs>
    <g id="Page-1" stroke="none" stroke-width="1" fill="none" fill-rule="evenodd">
        <g id="Apple-TV" transform="translate(-916.000000, -125.000000)">
            <g id="hobbies_tea" transform="translate(916.000000, 125.000000)">
                <path d="M98.966,145.224 C98.677,144.868 98.414,144.501 98.161,144.137 C95.942,143.408 94.118,141.688 93.438,139.216 C93.088,137.947 93.129,136.6 93.479,135.342 C83.965,129.82 69.316,126.279 52.872,126.279 C35.379,126.279 19.917,130.285 10.507,136.421 C10.485,136.647 10.463,136.861 10.441,137.06 C10.169,139.48 9.809,141.852 8.992,144.152 C7.761,147.615 4.592,147.764 0.924,147.222 L0.924,150.328 C0.924,163.608 24.182,174.378 52.872,174.378 C81.562,174.378 104.819,163.608 104.819,150.328 L104.819,146.922 C102.611,146.535 100.423,147.028 98.966,145.224 Z" id="Shape_21_" fill="#C7C3B7" fill-rule="nonzero"></path>
                <path d="M0.922,146.921 C0.922,160.2 24.18,170.969 52.87,170.969 C81.56,170.969 104.817,160.201 104.817,146.921 C104.817,133.636 81.56,122.869 52.87,122.869 C24.18,122.869 0.922,133.636 0.922,146.921 Z" id="Shape_22_" fill="#EDEDE5" fill-rule="nonzero"></path>
                <path d="M13.843,143.232 C13.843,153.205 31.316,161.299 52.871,161.299 C74.424,161.299 91.899,153.205 91.899,143.232 C91.899,133.25 74.425,109.31 52.871,109.31 C31.317,109.309 13.843,133.25 13.843,143.232 Z" id="Shape_23_" fill="#D0D0C7" fill-rule="nonzero"></path>
                <path d="M104.816,114.756 L104.816,111.442 L104.816,108.335 L104.816,104.941 C104.816,99.235 102.79,94.776 99.259,92.706 C96.35,91.002 92.862,91.108 89.436,93.007 L84.499,95.519 C82.74,96.414 82.037,98.568 82.934,100.328 C83.83,102.089 85.982,102.789 87.743,101.895 L92.738,99.352 C92.782,99.33 92.823,99.308 92.866,99.285 C93.675,98.831 94.813,98.39 95.643,98.878 C96.576,99.424 97.663,101.339 97.663,104.94 L97.663,108.335 L97.663,111.442 L97.663,114.837 C97.663,114.89 97.666,114.952 97.666,115.004 C97.763,117.222 97.205,122.265 94.907,123.664 L84.311,129.887 C82.608,130.887 82.037,133.08 83.038,134.783 C83.705,135.918 84.9,136.547 86.126,136.547 C86.742,136.547 87.365,136.391 87.934,136.056 L98.578,129.804 C105.009,125.892 104.878,116.267 104.816,114.756 Z" id="Shape_24_" fill="#FFFFFF" fill-rule="nonzero"></path>
                <polyline id="Shape_25_" fill="#D0D0C7" fill-rule="nonzero" points="13.843 143.232 13.843 92.853 29.021 89.612 44.503 89.612 61.579 90.551 91.898 92.853 91.898 143.232 63.778 149.51"></polyline>
                <path d="M13.843,92.853 C13.843,102.826 31.316,110.92 52.871,110.92 C74.424,110.92 91.899,102.827 91.899,92.853 C91.899,82.871 74.425,74.782 52.871,74.782 C31.317,74.782 13.843,82.871 13.843,92.853 Z" id="Shape_26_" fill="#EDEDE5" fill-rule="nonzero"></path>
                <path d="M52.871,78.13 C35.314,78.13 21.081,84.721 21.081,92.851 C21.081,100.976 35.314,107.569 52.871,107.569 C70.427,107.569 84.66,100.975 84.66,92.851 C84.66,84.721 70.427,78.13 52.871,78.13 Z" id="Shape_27_" fill="#D0D0C7" fill-rule="nonzero"></path>
                <g id="Clipped" transform="translate(21.000000, 78.000000)">
                    <g id="Group_3_-Clipped">
                        <mask id="mask-2" fill="white">
                            <use xlink:href="#path-1"></use>
                        </mask>
                        <g id="path-1_3_"></g>
                        <g id="Group_3_" mask="url(#mask-2)">
                            <g transform="translate(0.000000, 11.000000)" id="Group">
                                <g>
                                    <path d="M0.081,15.278 C0.081,23.403 14.314,29.995 31.871,29.995 C49.427,29.995 63.66,23.403 63.66,15.278 C63.66,7.147 49.427,0.557 31.871,0.557 C14.314,0.557 0.081,7.148 0.081,15.278 Z" id="Shape_28_" fill="#D81245" fill-rule="nonzero"></path>
                                    <path d="M7.753,15.278 C7.753,21.441 18.55,26.443 31.87,26.443 C45.188,26.443 55.987,21.44 55.987,15.278 C55.987,9.108 45.19,4.109 31.87,4.109 C18.55,4.109 7.753,9.109 7.753,15.278 Z" id="Shape_29_" fill="#EB7A9F" fill-rule="nonzero"></path>
                                    <ellipse id="Oval" fill="#D81245" fill-rule="nonzero" cx="31.87" cy="15.278" rx="12.006" ry="5.558"></ellipse>
                                </g>
                            </g>
                        </g>
                    </g>
                </g>
                <g id="Group_4_" opacity="0.3" transform="translate(32.000000, 0.000000)" fill="#D81245" fill-rule="nonzero">
                    <g id="Shape_30_" transform="translate(11.000000, 41.000000)">
                        <path d="M4.399,56.175 C2.423,55.003 0.821,52.205 0.821,49.928 L0.821,2.759 C0.821,0.483 2.423,-0.413 4.399,0.76 C6.375,1.933 7.977,4.729 7.977,7.006 L7.977,54.177 C7.977,56.452 6.375,57.347 4.399,56.175 Z" id="Shape"></path>
                    </g>
                    <g id="Shape_31_" transform="translate(34.000000, 41.000000)">
                        <path d="M3.816,56.175 C1.84,55.003 0.238,52.205 0.238,49.928 L0.238,2.759 C0.238,0.483 1.839,-0.413 3.816,0.76 C5.792,1.933 7.394,4.729 7.394,7.006 L7.394,54.177 C7.394,56.452 5.792,57.347 3.816,56.175 Z" id="Shape"></path>
                    </g>
                    <g id="Shape_32_" transform="translate(0.000000, 64.000000)">
                        <path d="M3.926,20.246 C1.949,19.073 0.347,16.276 0.347,13.999 L0.347,3.03 C0.347,0.755 1.949,-0.141 3.926,1.031 C5.902,2.203 7.503,5 7.503,7.278 L7.503,18.247 C7.503,20.523 5.901,21.42 3.926,20.246 Z" id="Shape"></path>
                    </g>
                    <g id="Shape_33_" transform="translate(21.000000, 75.000000)">
                        <path d="M4.284,13.239 C2.307,12.066 0.706,9.268 0.706,6.992 L0.706,2.766 C0.706,0.487 2.307,-0.407 4.284,0.766 C6.26,1.938 7.862,4.735 7.862,7.011 L7.862,11.238 C7.862,13.515 6.259,14.411 4.284,13.239 Z" id="Shape"></path>
                    </g>
                    <g id="Shape_34_" transform="translate(21.000000, 0.000000)">
                        <path d="M4.284,74.134 C2.307,72.96 0.706,70.163 0.706,67.887 L0.706,2.642 C0.706,0.365 2.307,-0.53 4.284,0.643 C6.26,1.815 7.862,4.612 7.862,6.888 L7.862,72.133 C7.862,74.411 6.259,75.307 4.284,74.134 Z" id="Shape"></path>
                    </g>
                    <g id="Shape_35_" transform="translate(0.000000, 18.000000)">
                        <path d="M3.926,41.273 C1.949,40.1 0.347,37.301 0.347,35.026 L0.347,2.73 C0.347,0.453 1.949,-0.443 3.926,0.731 C5.902,1.903 7.503,4.701 7.503,6.976 L7.503,39.274 C7.503,41.55 5.901,42.446 3.926,41.273 Z" id="Shape"></path>
                    </g>
                </g>
            </g>
        </g>
    </g>
</svg>