<?xml version="1.0" encoding="UTF-8"?>
<svg width="319px" height="382px" viewBox="0 0 319 382" version="1.1" xmlns="http://www.w3.org/2000/svg" xmlns:xlink="http://www.w3.org/1999/xlink">
    <!-- Generator: Sketch 50.2 (55047) - http://www.bohemiancoding.com/sketch -->
    <title>PORTFOLIO_my_ws</title>
    <desc>Created with Sketch.</desc>
    <defs></defs>
    <g id="Page-1" stroke="none" stroke-width="1" fill="none" fill-rule="evenodd">
        <g id="Apple-TV" transform="translate(-656.000000, -176.000000)" fill-rule="nonzero">
            <g id="PORTFOLIO" transform="translate(656.000000, 176.000000)">
                <g id="contact" transform="translate(170.000000, 274.719160)">
                    <path d="M144.864,29.3107297 L141.878,30.186021 L100.661,6.05184252 C97.867,4.42358005 93.311,4.43861942 90.534,6.08593176 L3.044,57.4513963 L0.245,56.3053963 L0.245,60.9154646 L0.25,60.9154646 C0.282,61.9662152 0.966,63.0129554 2.311,63.8110446 L43.766,88.5006772 C46.537,90.1449816 51.077,90.1780682 53.853,88.5728661 L142.75,36.6489396 C144.184,35.8177638 144.884,34.7178845 144.856,33.616 L144.863,33.6149974 L144.864,29.3107297 Z" id="Shape_84_" fill="#2E2C2C"></path>
                    <path d="M100.662,1.43976903 C97.868,-0.190498688 93.312,-0.171448819 90.535,1.47385827 L2.293,53.2784724 C-0.444,54.903727 -0.437,57.5666982 2.311,59.1969659 L43.766,83.887601 C46.537,85.5319055 51.077,85.5659948 53.853,83.95979 L142.749,32.0348609 C145.565,30.4045932 145.565,27.7275853 142.747,26.0842835 L100.662,1.43976903 Z" id="Shape_85_" fill="#4E4A41"></path>
                    <path d="M98.275,6.46793176 C95.965,5.1204042 92.194,5.13444094 89.898,6.49600525 L16.893,49.3562047 C14.628,50.7007244 14.636,52.9034908 16.909,54.2530236 L51.206,74.6784934 C53.499,76.0380525 57.254,76.0651234 59.55,74.7376483 L133.095,31.7811969 C135.425,30.4326667 135.424,28.2168661 133.095,26.8573071 L98.275,6.46793176 Z" id="Shape_86_" fill="#2E2C2C"></path>
                    <path d="M96.09,12.4786667 C94.815,11.7357218 92.732,11.7437428 91.463,12.4947087 L51.142,36.1676798 C49.89,36.909622 49.895,38.1268084 51.151,38.8717585 L70.094,50.1532913 C71.361,50.9042572 73.435,50.9202992 74.702,50.186378 L115.321,26.462273 C116.607,25.7173228 116.607,24.4941207 115.321,23.7421522 L96.09,12.4786667 Z" id="Shape_87_" fill="#FFFFFF"></path>
                    <path d="M115.322,26.4602677 C116.608,25.7153176 116.608,24.4921155 115.322,23.740147 L96.091,12.4786667 C94.816,11.7357218 92.733,11.7437428 91.464,12.4947087 L88.908,13.9946352 L113.156,27.7255801 L115.322,26.4602677 Z" id="Shape_88_" fill="#FFD500"></path>
                    <ellipse id="Oval_12_" fill="#CE346B" cx="93.657" cy="13.9956378" rx="1.959" ry="1"></ellipse>
                    <ellipse id="Oval_13_" fill="#B75CFF" cx="97.304" cy="16.1733386" rx="1.96" ry="1"></ellipse>
                    <path d="M100.385,26.1253911 C101.191,25.6571654 101.191,24.8901575 100.385,24.4199265 L88.331,17.3604462 C87.532,16.8942257 86.226,16.8992388 85.431,17.3704724 L83.83,18.311937 L99.028,26.9164619 L100.385,26.1253911 Z" id="Shape_89_" fill="#D7D7DC"></path>
                    <path d="M98.029,31.8664199 C98.835,31.3991969 98.835,30.6311864 98.029,30.161958 L85.975,23.1034803 C85.176,22.6362572 83.87,22.642273 83.075,23.1135066 L81.474,24.0529659 L96.672,32.6594961 L98.029,31.8664199 Z" id="Shape_90_" fill="#D7D7DC"></path>
                    <path d="M91.804,35.4848924 C92.611,35.0176693 92.61,34.2496588 91.804,33.7804304 L79.751,26.7219528 C78.952,26.2557323 77.646,26.2607454 76.851,26.731979 L75.249,27.6724409 L90.447,36.2779685 L91.804,35.4848924 Z" id="Shape_91_" fill="#D7D7DC"></path>
                    <path d="M85.579,39.1013596 C86.385,38.6341365 86.385,37.8671286 85.579,37.3968976 L73.525,30.3384199 C72.725,29.8711969 71.42,29.87621 70.625,30.3484462 L69.024,31.2889081 L84.222,39.8944357 L85.579,39.1013596 Z" id="Shape_92_" fill="#D7D7DC"></path>
                    <path d="M72.786,46.8696955 C73.281,46.5829449 73.281,46.1127139 72.785,45.8229554 L57.179,36.8274068 C56.688,36.5416588 55.886,36.543664 55.397,36.8344252 L54.414,37.411937 L71.951,47.3579738 L72.786,46.8696955 Z" id="Shape_93_" fill="#D7D7DC"></path>
                    <g id="Group_9_" transform="translate(19.000000, 13.034121)">
                        <path d="M0.298,52.953622 C0.298,54.4405144 2.895,55.6446667 6.1,55.6446667 C9.304,55.6446667 11.901,54.4395118 11.901,52.953622 C11.901,51.4637218 9.304,50.2595696 6.1,50.2595696 C2.895,50.2595696 0.298,51.4647244 0.298,52.953622 Z" id="Shape_94_" fill="#2E2C2C"></path>
                        <ellipse id="Oval_14_" fill="#4E4A41" cx="6.099" cy="52.953622" rx="3.937" ry="1.82678215"></ellipse>
                        <path d="M99.57,3.49414698 C101.077,3.49414698 102.299,2.92666142 102.299,2.2268294 C102.299,1.52699738 101.077,0.959511811 99.57,0.959511811 C98.063,0.959511811 96.841,1.52699738 96.841,2.2268294 C96.841,2.92666142 98.063,3.49414698 99.57,3.49414698 Z" id="Oval_15_" fill="#2E2C2C"></path>
                        <ellipse id="Oval_16_" fill="#4E4A41" cx="99.57" cy="2.2268294" rx="1.601" ry="1"></ellipse>
                        <ellipse id="Oval_17_" fill="#2E2C2C" cx="99.569" cy="2.2268294" rx="1" ry="1"></ellipse>
                    </g>
                </g>
                <g id="Group">
                    <g id="Group_10_">
                        <g id="Shape_95_">
                            <path d="M196.639,132.830724 C196.639,141.35905 191.467,151.325139 185.087,155.089995 L12.077,257.18526 C5.698,260.947108 0.526,257.086 0.526,248.556672 L0.526,126.652551 C0.526,118.124226 5.697,108.159139 12.077,104.394283 L185.087,2.29901837 C191.466,-1.46583727 196.639,2.39527034 196.639,10.9235958 L196.639,132.830724 Z" id="Shape" fill="#FFFFFF"></path>
                            <path d="M185.087,2.300021 L12.077,104.394283 C5.698,108.158136 0.526,118.123223 0.526,126.652551 L0.526,248.557675 C0.526,249.514178 0.6,250.403507 0.724,251.235685 L196.461,135.551848 C196.569,134.635449 196.638,133.724063 196.638,132.831727 L196.638,10.9235958 C196.639,2.39527034 191.466,-1.46583727 185.087,2.300021 Z" id="Shape" fill="#4E4A41"></path>
                            <path d="M189.749,1.85786352 C193.328,1.85786352 195.64,5.4171811 195.64,10.9245984 L195.64,132.831727 C195.64,141.030189 190.678,150.628315 184.581,154.226735 L11.57,256.320997 C10.104,257.187265 8.707,257.625412 7.418,257.625412 C3.839,257.625412 1.527,254.066094 1.527,248.557675 L1.527,126.652551 C1.527,118.454089 6.487,108.854961 12.585,105.257543 L185.595,3.16127559 C187.059,2.29701312 188.457,1.85786352 189.749,1.85786352 Z M189.749,0.857244094 C188.323,0.857244094 186.745,1.32145932 185.087,2.300021 L12.077,104.394283 C5.698,108.158136 0.526,118.123223 0.526,126.652551 L0.526,248.557675 C0.526,254.871202 3.358,258.625029 7.418,258.625029 C8.842,258.625029 10.419,258.162819 12.078,257.18526 L185.088,155.088992 C191.467,151.324136 196.64,141.358047 196.64,132.829722 L196.64,10.9225932 C196.639,4.61207349 193.805,0.857244094 189.749,0.857244094 Z" id="Shape" fill="#B3B7BE"></path>
                            <path d="M13.617,260.242262 L13.617,265.543139 L16.543,267.850178 L18.285,266.728241 C18.285,266.728241 18.098,266.105612 18.285,265.854955 C18.47,265.606304 18.471,264.291864 18.285,264.045218 C18.097,263.798572 13.617,260.242262 13.617,260.242262 Z" id="Shape" fill="#BCB7BB"></path>
                            <path d="M207.954,164.702157 C201.144,161.060625 190.209,161.097722 183.655,164.77936 L18.164,259.734934 C11.699,263.364436 11.896,269.316016 18.6,272.96557 L117.972,327.140388 C124.733,330.818016 135.629,330.891207 142.183,327.302814 L302.117,226.630273 C308.765,222.98874 308.586,217.001066 301.717,213.327449 L207.954,164.702157 Z" id="Shape" fill="#BCB7BB"></path>
                            <path d="M212.868,152.551349 C206.167,148.643118 195.229,148.68222 188.565,152.633564 L18.522,253.479559 C11.95,257.377764 11.968,263.767491 18.564,267.683743 L118.054,326.93485 C124.704,330.884189 135.599,330.959386 142.261,327.108304 L313.88,225.97957 C320.639,222.069333 320.636,215.641507 313.875,211.698184 L212.868,152.551349 Z" id="Shape" fill="#FFFFFF"></path>
                            <path d="M209.947,159.048357 C203.938,155.543181 194.124,155.578273 188.148,159.123554 L31.851,252.072877 C25.955,255.570031 25.971,261.301034 31.89,264.813228 L84.059,294.840835 C90.025,298.382105 99.798,298.453291 105.774,294.996241 L263.481,201.793255 C269.545,198.286073 269.542,192.518976 263.478,188.981717 L209.947,159.048357 Z" id="Shape" fill="#C7C3B7"></path>
                            <path d="M234.651,234.249218 C232.495,232.991927 228.973,233.003958 226.828,234.274283 L170.753,267.624588 C168.638,268.878871 168.644,270.935255 170.768,272.195554 L189.486,282.968756 C191.625,284.239081 195.132,284.263144 197.277,283.0239 L253.859,249.58336 C256.033,248.327071 256.033,246.257654 253.856,244.988331 L234.651,234.249218 Z" id="Shape" fill="#C7C3B7"></path>
                            <g id="Group" transform="translate(31.000000, 159.417323)" fill="#4E4A41">
                                <path d="M222.856,85.5720105 L217.242,82.4327927 L153.206,120.512478 L158.484,123.551433 C160.623,124.821759 164.13,124.845822 166.275,123.606577 L222.857,90.1660367 C225.033,88.909748 225.032,86.8413333 222.856,85.5720105 Z" id="Shape"></path>
                                <path d="M186.881,55.8652441 L179.196,51.5689974 L91.526,103.704478 L98.753,107.862362 C101.684,109.602919 106.482,109.636005 109.418,107.940567 L186.884,62.1587192 C189.861,60.43621 189.861,57.6037953 186.881,55.8652441 Z" id="Shape"></path>
                                <g id="Shape">
                                    <path d="M2.351,99.5907087 L3.826,100.358719 L15.048,93.630105 L13.881,92.9553386 C11.905,91.7832703 8.667,91.7622152 6.687,92.9052073 L2.348,95.3445932 C0.341,96.5086404 0.341,98.4186404 2.351,99.5907087 Z"></path>
                                    <path d="M17.811,90.4507822 L19.285,91.2157848 L30.507,84.4871706 L29.341,83.8144094 C27.366,82.6393333 24.127,82.6182782 22.147,83.7642782 L17.808,86.203664 C15.8,87.3677113 15.801,89.2787139 17.811,90.4507822 Z"></path>
                                    <path d="M33.27,81.3078478 L34.744,82.0758583 L45.966,75.3472441 L44.8,74.6724777 C42.825,73.4984042 39.586,73.4773491 37.606,74.6233491 L33.267,77.0617323 C31.259,78.2247769 31.259,80.1357795 33.27,81.3078478 Z"></path>
                                    <path d="M48.728,72.165916 L50.204,72.9349291 L61.426,66.2053123 L60.26,65.5315486 C58.284,64.3584777 55.046,64.3364199 53.067,65.4814173 L48.727,67.9218058 C46.718,69.0838478 46.719,70.9948504 48.728,72.165916 Z"></path>
                                    <path d="M64.188,63.0239843 L65.663,63.7919948 L76.885,57.0633806 L75.718,56.3896168 C73.742,55.2165459 70.506,55.1934856 68.525,56.3394856 L64.186,58.7778688 C62.178,59.9429186 62.179,61.8529186 64.188,63.0239843 Z"></path>
                                    <path d="M79.648,53.8840577 L81.122,54.650063 L92.344,47.9214488 L91.177,47.2496903 C89.201,46.0756168 85.965,46.0535591 83.984,47.1985564 L79.645,49.6389449 C77.637,50.8009869 77.637,52.7109869 79.648,53.8840577 Z"></path>
                                    <path d="M95.108,44.742126 L96.583,45.5101365 L107.805,38.7815223 L106.637,38.1067559 C104.661,36.933685 101.426,36.9106247 99.445,38.0576273 L95.105,40.4960105 C93.096,41.6600577 93.096,43.5700577 95.108,44.742126 Z"></path>
                                    <path d="M110.566,35.6011969 L112.04,36.3692073 L123.262,29.6405932 L122.097,28.9668294 C120.122,27.7927559 116.884,27.7706982 114.905,28.9156955 L110.565,31.356084 C108.555,32.5171234 108.555,34.428126 110.566,35.6011969 Z"></path>
                                    <path d="M126.026,26.4592651 L127.499,27.2272756 L138.723,20.4986614 L137.556,19.8248976 C135.582,18.6508241 132.345,18.6287664 130.364,19.7737638 L126.025,22.2151549 C124.015,23.3761942 124.015,25.2871969 126.026,26.4592651 Z"></path>
                                    <path d="M141.485,17.318336 L142.96,18.0853438 L154.182,11.3567297 L153.014,10.6829659 C151.04,9.50989501 147.801,9.48783727 145.822,10.6328346 L141.483,13.0722205 C139.474,14.2352651 139.474,16.1452651 141.485,17.318336 Z"></path>
                                    <path d="M156.947,8.17540157 L158.419,8.94341207 L169.643,2.2147979 L168.476,1.5400315 C166.502,0.36696063 163.263,0.344902887 161.283,1.49090289 L156.945,3.93129134 C154.935,5.09433596 154.935,7.00333333 156.947,8.17540157 Z"></path>
                                </g>
                                <g transform="translate(9.000000, 5.013123)" id="Shape">
                                    <path d="M2.307,99.7922362 L7.491,102.691827 L18.713,95.9642152 L13.839,93.1578688 C11.865,91.9847979 8.626,91.9627402 6.646,93.1077375 L2.307,95.5471234 C0.297,96.7111706 0.297,98.620168 2.307,99.7922362 Z"></path>
                                    <path d="M17.767,90.6503045 L22.951,93.5478898 L34.173,86.8212808 L29.299,84.015937 C27.323,82.8428661 24.084,82.8198058 22.105,83.9648031 L17.766,86.4081995 C15.757,87.5692388 15.757,89.4772336 17.767,90.6503045 Z"></path>
                                    <path d="M33.227,81.5113806 L38.41,84.4089659 L49.632,77.6803517 L44.758,74.8740052 C42.783,73.7009344 39.544,73.677874 37.565,74.8268819 L33.226,77.2662677 C31.217,78.4242992 31.218,80.3363045 33.227,81.5113806 Z"></path>
                                    <path d="M48.687,72.3674436 L53.871,75.2670341 L65.092,68.5384199 L60.218,65.7330761 C58.244,64.5600052 55.004,64.5379475 53.025,65.6829449 L48.686,68.1233333 C46.675,69.2843727 46.676,71.196378 48.687,72.3674436 Z"></path>
                                    <path d="M64.145,63.2245092 L69.329,66.1240997 L80.55,59.3964882 L75.676,56.5911444 C73.702,55.4170709 70.463,55.3950131 68.483,56.5400105 L64.144,58.980399 C62.134,60.1424409 62.135,62.0544462 64.145,63.2245092 Z"></path>
                                    <path d="M79.604,54.0855853 L84.788,56.9831706 L96.01,50.2545564 L91.135,47.4502152 C89.159,46.2771444 85.921,46.254084 83.942,47.3990814 L79.602,49.8394698 C77.595,51.0015118 77.595,52.9115118 79.604,54.0855853 Z"></path>
                                    <path d="M95.064,44.9426509 L100.248,47.8422415 L111.47,41.1126247 L106.595,38.3072808 C104.619,37.13421 101.381,37.1121522 99.402,38.2591549 L95.062,40.6975381 C93.052,41.8605827 93.052,43.7705827 95.064,44.9426509 Z"></path>
                                    <path d="M110.522,35.8017218 L115.706,38.7013123 L126.928,31.9726982 L122.053,29.168357 C120.078,27.9932808 116.84,27.9722257 114.86,29.1172231 L110.52,31.5566089 C108.512,32.7176483 108.512,34.6286509 110.522,35.8017218 Z"></path>
                                    <path d="M125.983,26.65979 L131.165,29.5593806 L142.387,22.8307664 L137.512,20.0264252 C135.538,18.8523517 132.299,18.830294 130.319,19.9752913 L125.98,22.4156798 C123.972,23.5777218 123.972,25.4887244 125.983,26.65979 Z"></path>
                                    <path d="M141.441,17.5178583 L146.625,20.4174488 L157.847,13.6898373 L152.973,10.8834908 C150.997,9.71041995 147.76,9.6883622 145.781,10.8343622 L141.44,13.273748 C139.432,14.43579 139.432,16.3467927 141.441,17.5178583 Z"></path>
                                    <path d="M156.902,8.37692913 L162.084,11.2765197 L173.308,4.54790551 L168.434,1.74155906 C166.457,0.568488189 163.219,0.546430446 161.239,1.69142782 L156.899,4.13181627 C154.89,5.29385827 154.89,7.20385827 156.902,8.37692913 Z"></path>
                                </g>
                                <g transform="translate(9.000000, 5.013123)" id="Shape">
                                    <path d="M2.307,99.7922362 L7.491,102.691827 L18.713,95.9642152 L13.839,93.1578688 C11.865,91.9847979 8.626,91.9627402 6.646,93.1077375 L2.307,95.5471234 C0.297,96.7111706 0.297,98.620168 2.307,99.7922362 Z"></path>
                                    <path d="M17.767,90.6503045 L22.951,93.5478898 L34.173,86.8212808 L29.299,84.015937 C27.323,82.8428661 24.084,82.8198058 22.105,83.9648031 L17.766,86.4081995 C15.757,87.5692388 15.757,89.4772336 17.767,90.6503045 Z"></path>
                                    <path d="M33.227,81.5113806 L38.41,84.4089659 L49.632,77.6803517 L44.758,74.8740052 C42.783,73.7009344 39.544,73.677874 37.565,74.8268819 L33.226,77.2662677 C31.217,78.4242992 31.218,80.3363045 33.227,81.5113806 Z"></path>
                                    <path d="M48.687,72.3674436 L53.871,75.2670341 L65.092,68.5384199 L60.218,65.7330761 C58.244,64.5600052 55.004,64.5379475 53.025,65.6829449 L48.686,68.1233333 C46.675,69.2843727 46.676,71.196378 48.687,72.3674436 Z"></path>
                                    <path d="M64.145,63.2245092 L69.329,66.1240997 L80.55,59.3964882 L75.676,56.5911444 C73.702,55.4170709 70.463,55.3950131 68.483,56.5400105 L64.144,58.980399 C62.134,60.1424409 62.135,62.0544462 64.145,63.2245092 Z"></path>
                                    <path d="M79.604,54.0855853 L84.788,56.9831706 L96.01,50.2545564 L91.135,47.4502152 C89.159,46.2771444 85.921,46.254084 83.942,47.3990814 L79.602,49.8394698 C77.595,51.0015118 77.595,52.9115118 79.604,54.0855853 Z"></path>
                                    <path d="M95.064,44.9426509 L100.248,47.8422415 L111.47,41.1126247 L106.595,38.3072808 C104.619,37.13421 101.381,37.1121522 99.402,38.2591549 L95.062,40.6975381 C93.052,41.8605827 93.052,43.7705827 95.064,44.9426509 Z"></path>
                                    <path d="M110.522,35.8017218 L115.706,38.7013123 L126.928,31.9726982 L122.053,29.168357 C120.078,27.9932808 116.84,27.9722257 114.86,29.1172231 L110.52,31.5566089 C108.512,32.7176483 108.512,34.6286509 110.522,35.8017218 Z"></path>
                                    <path d="M125.983,26.65979 L131.165,29.5593806 L142.387,22.8307664 L137.512,20.0264252 C135.538,18.8523517 132.299,18.830294 130.319,19.9752913 L125.98,22.4156798 C123.972,23.5777218 123.972,25.4887244 125.983,26.65979 Z"></path>
                                    <path d="M141.441,17.5178583 L146.625,20.4174488 L157.847,13.6898373 L152.973,10.8834908 C150.997,9.71041995 147.76,9.6883622 145.781,10.8343622 L141.44,13.273748 C139.432,14.43579 139.432,16.3467927 141.441,17.5178583 Z"></path>
                                    <path d="M156.902,8.37692913 L162.084,11.2765197 L173.308,4.54790551 L168.434,1.74155906 C166.457,0.568488189 163.219,0.546430446 161.239,1.69142782 L156.899,4.13181627 C154.89,5.29385827 154.89,7.20385827 156.902,8.37692913 Z"></path>
                                </g>
                                <g transform="translate(22.000000, 12.031496)" id="Shape">
                                    <path d="M2.313,99.7852178 L7.497,102.684808 L18.719,95.9561942 L13.843,93.1498478 C11.868,91.9767769 8.63,91.9547192 6.65,93.1017218 L2.31,95.540105 C0.302,96.7011444 0.303,98.612147 2.313,99.7852178 Z"></path>
                                    <path d="M17.772,90.6442887 L22.954,93.541874 L34.176,86.8122572 L29.301,84.0099213 C27.326,82.8348451 24.088,82.8117848 22.108,83.9587874 L17.769,86.4001785 C15.762,87.5592126 15.762,89.4722205 17.772,90.6442887 Z"></path>
                                    <path d="M33.232,81.502357 L38.414,84.3999423 L49.636,77.6713281 L44.762,74.8659843 C42.787,73.6909081 39.549,73.669853 37.569,74.815853 L33.23,77.2552388 C31.221,78.4172808 31.221,80.3302887 33.232,81.502357 Z"></path>
                                    <path d="M48.69,72.3594226 L53.874,75.2590131 L65.096,68.5293963 L60.221,65.7240525 C58.247,64.5489764 55.008,64.5289239 53.028,65.6739213 L48.689,68.1123045 C46.68,69.2763517 46.68,71.1863517 48.69,72.3594226 Z"></path>
                                    <path d="M64.15,63.2174908 L69.333,66.1170814 L80.555,59.3884672 L75.68,56.5851286 C73.704,55.4110551 70.467,55.3889974 68.487,56.5339948 L64.148,58.9743832 C62.139,60.1344199 62.139,62.0454226 64.15,63.2174908 Z"></path>
                                    <path d="M79.607,54.0765617 L84.793,56.9751496 L96.015,50.2465354 L91.139,47.4411916 C89.165,46.2681207 85.928,46.246063 83.946,47.392063 L79.607,49.8304462 C77.597,50.9924882 77.598,52.9044934 79.607,54.0765617 Z"></path>
                                    <path d="M95.069,44.9336273 L100.253,47.8332178 L111.473,41.1046037 L106.599,38.3002625 C104.623,37.126189 101.385,37.1041312 99.404,38.2491286 L95.065,40.6885144 C93.058,41.8525617 93.058,43.7615591 95.069,44.9336273 Z"></path>
                                    <path d="M110.527,35.7926982 L115.711,38.6922887 L126.933,31.9646772 L122.059,29.1583307 C120.084,27.9852598 116.846,27.9632021 114.866,29.1081995 L110.526,31.5495906 C108.518,32.7106299 108.518,34.6206299 110.527,35.7926982 Z"></path>
                                    <path d="M125.987,26.6507664 L131.171,29.5493543 L142.393,22.8217428 L137.518,20.0153963 C135.544,18.8423255 132.307,18.8192651 130.325,19.9662677 L125.986,22.4056535 C123.976,23.5697008 123.976,25.4797008 125.987,26.6507664 Z"></path>
                                    <path d="M141.445,17.5098373 L146.629,20.4094278 L157.849,13.6808136 L152.975,10.8764724 C151.001,9.70340157 147.762,9.68034121 145.783,10.8253386 L141.443,13.2647244 C139.435,14.427769 139.435,16.337769 141.445,17.5098373 Z"></path>
                                    <path d="M156.905,8.36890814 L162.089,11.2684987 L173.311,4.53988451 L168.436,1.73454068 C166.462,0.561469816 163.225,0.539412073 161.244,1.68440945 L156.904,4.12379528 C154.896,5.2868399 154.896,7.1968399 156.905,8.36890814 Z"></path>
                                </g>
                                <g transform="translate(35.000000, 19.049869)" id="Shape">
                                    <path d="M2.316,99.7751916 L7.5,102.675785 L18.722,95.9471706 L13.847,93.1398215 C11.872,91.9677533 8.633,91.9466982 6.653,93.0916955 L2.314,95.5340892 C0.306,96.6921207 0.306,98.6021207 2.316,99.7751916 Z"></path>
                                    <path d="M17.776,90.6342625 L22.96,93.5318478 L34.182,86.8042362 L29.307,83.9988924 C27.331,82.8238163 24.094,82.8007559 22.113,83.9487612 L17.774,86.3871444 C15.766,87.5521942 15.767,89.4621942 17.776,90.6342625 Z"></path>
                                    <path d="M33.236,81.494336 L38.419,84.3939265 L49.64,77.6633071 L44.766,74.8579633 C42.791,73.685895 39.553,73.6638373 37.573,74.807832 L33.234,77.2472178 C31.225,78.4102625 31.226,80.3212651 33.236,81.494336 Z"></path>
                                    <path d="M48.695,72.350399 L53.877,75.2509921 L65.099,68.5213753 L60.225,65.7150289 C58.251,64.5449659 55.012,64.5219055 53.03,65.6679055 L48.691,68.1092966 C46.684,69.2673281 46.684,71.1783307 48.695,72.350399 Z"></path>
                                    <path d="M64.153,63.2104724 L69.337,66.110063 L80.559,59.3804462 L75.684,56.576105 C73.708,55.4010289 70.471,55.3799738 68.491,56.5269764 L64.152,58.9653596 C62.144,60.1274016 62.144,62.0384042 64.153,63.2104724 Z"></path>
                                    <path d="M79.613,54.0675381 L84.795,56.9651234 L96.019,50.2365092 L91.143,47.4331706 C89.167,46.2590971 85.93,46.2370394 83.95,47.3820367 L79.611,49.8224252 C77.601,50.9854698 77.602,52.8954698 79.613,54.0675381 Z"></path>
                                    <path d="M95.073,44.9256063 L100.255,47.8251969 L111.477,41.0965827 L106.603,38.2932441 C104.626,37.1191706 101.388,37.0961102 99.41,38.2421102 L95.071,40.6814961 C93.061,41.8435381 93.061,43.7535381 95.073,44.9256063 Z"></path>
                                    <path d="M110.531,35.7856798 L115.715,38.6852703 L126.937,31.9566562 L122.062,29.1503097 C120.086,27.9772388 116.849,27.9541785 114.869,29.1011811 L110.53,31.5405669 C108.52,32.7026089 108.52,34.6136115 110.531,35.7856798 Z"></path>
                                    <path d="M125.993,26.643748 L131.174,29.5413333 L142.396,22.8127192 L137.522,20.0093806 C135.546,18.8353071 132.309,18.814252 130.329,19.9572441 L125.99,22.3976325 C123.98,23.5596745 123.98,25.4706772 125.993,26.643748 Z"></path>
                                    <path d="M141.451,17.5008136 L146.635,20.4004042 L157.857,13.6707874 L152.983,10.8664462 C151.007,9.69337533 147.769,9.67031496 145.79,10.816315 L141.449,13.2567034 C139.44,14.419748 139.44,16.3287454 141.451,17.5008136 Z"></path>
                                    <path d="M156.912,8.35988451 L162.094,11.2594751 L173.318,4.53086089 L168.441,1.72551706 C166.465,0.550440945 163.227,0.529385827 161.248,1.6743832 L156.909,4.11376903 C154.9,5.27781627 154.9,7.18781627 156.912,8.35988451 Z"></path>
                                </g>
                            </g>
                            <polygon id="Shape" fill="#691787" points="183.792 129.741638 15.487 228.537265 15.487 120.58968 183.792 21.7930499"></polygon>
                        </g>
                        <path d="M103.795,59.6782257 C103.795,61.9942887 102.276,64.7735643 100.4,65.8854751 L80.441,77.7354961 C78.566,78.8494121 77.046,77.8758635 77.046,75.5598005 C77.046,73.2457428 78.566,70.4664672 80.441,69.3525512 L100.4,57.5025302 C102.276,56.3896168 103.795,57.3631654 103.795,59.6782257 Z" id="Shape_96_" fill="#3C362F"></path>
                        <path d="M79.341,74.0187664 C79.341,75.587874 80.29,76.4290761 81.462,75.897685 C82.632,75.366294 83.582,73.6638373 83.582,72.0947297 C83.582,70.525622 82.632,69.6844199 81.462,70.215811 C80.291,70.7472021 79.341,72.4486562 79.341,74.0187664 Z" id="Shape_97_" fill="#595756"></path>
                        <path d="M80.552,73.4683255 C80.552,74.1410866 80.959,74.5020315 81.462,74.2744357 C81.965,74.0468399 82.372,73.3169291 82.372,72.6431654 C82.372,71.9704042 81.965,71.6104619 81.462,71.8370551 C80.959,72.0656535 80.552,72.7955643 80.552,73.4683255 Z" id="Shape_98_" fill="#3C362F"></path>
                        <path d="M211.054,367.289491 C210.191,367.289491 209.351,366.840315 208.89,366.037213 C208.2,364.838073 208.61,363.306063 209.807,362.616257 L215.541,359.306593 C216.736,358.615785 218.262,359.026861 218.952,360.224997 C219.639,361.424136 219.229,362.953139 218.035,363.643948 L212.298,366.956619 C211.906,367.181207 211.478,367.289491 211.054,367.289491 Z" id="Shape_99_" fill="#2E2C2C"></path>
                        <path d="M182.902,381.397423 C182.068,381.397423 181.166,381.234997 180.237,380.797853 L19.095,284.797543 C19.056,284.774483 19.018,284.747412 18.982,284.719339 C18.771,284.550898 16.924,283.006856 16.964,280.862241 C16.988,279.572866 17.677,278.41684 19.013,277.428252 C19.457,277.095381 20.081,277.193638 20.41,277.637801 C20.738,278.082966 20.644,278.709606 20.2,279.03947 C19.39,279.638037 18.973,280.26568 18.961,280.900341 C18.943,281.851832 19.814,282.799312 20.183,283.114136 L181.173,379.030226 C183.626,380.181239 186.01,378.381528 186.113,378.303323 C186.141,378.280262 186.177,378.256199 186.21,378.235144 L209.97,363.926688 C210.443,363.641942 211.056,363.797349 211.34,364.269585 C211.624,364.743827 211.47,365.359438 210.998,365.643181 L187.284,379.924567 C186.938,380.180236 185.176,381.397423 182.902,381.397423 Z" id="Shape_100_" fill="#4F4A48"></path>
                        <path d="M19.744,280.378976 C18.927,280.378976 18.127,279.977927 17.649,279.242 C16.897,278.080961 17.224,276.530903 18.38,275.777932 L22.485,273.096913 C23.641,272.343942 25.187,272.671801 25.939,273.829832 C26.691,274.989869 26.364,276.539927 25.209,277.294903 L21.105,279.970908 C20.683,280.247633 20.212,280.378976 19.744,280.378976 Z" id="Shape_101_" fill="#2E2C2C"></path>
                    </g>
                    <g transform="translate(72.000000, 82.215223)">
                        <g id="XMLID_3921_" opacity="0.2" transform="translate(24.000000, 64.167979)" fill="#FFFFFF">
                            <path d="M1.12,18.8282887 L11.9,12.5879528 C12.065,12.4917008 12.167,12.3152388 12.167,12.1237375 L12.167,1.02969554 C12.167,0.616614173 11.722,0.358939633 11.365,0.565480315 L0.819,6.67046194 C0.509,6.84993176 0.318,7.18180052 0.318,7.54074016 L0.318,18.3650761 C0.318,18.7771549 0.763,19.035832 1.12,18.8282887 Z" id="XMLID_3922_"></path>
                        </g>
                        <g id="XMLID_3915_" opacity="0.2" transform="translate(38.000000, 56.146982)" fill="#FFFFFF">
                            <path d="M1.585,18.5325144 L12.365,12.2921785 C12.53,12.1959265 12.632,12.0194646 12.632,11.8279633 L12.632,0.73392126 C12.632,0.320839895 12.186,0.0631653543 11.83,0.269706037 L1.283,6.37468766 C0.973,6.55415748 0.782,6.88602625 0.782,7.24396325 L0.782,18.0672966 C0.781,18.4813806 1.228,18.7390551 1.585,18.5325144 Z" id="XMLID_3916_"></path>
                        </g>
                        <path d="M55.646,39.7630919 L66.196,33.8887139 C66.41,33.7643885 66.543,33.53579 66.543,33.2871391 L66.543,7.66406299 C66.543,7.12966404 65.965,6.7947874 65.503,7.06248819 L55.256,12.7614068 C54.854,12.9940157 54.607,13.4231391 54.607,13.888357 L54.607,39.1615171 C54.607,39.695916 55.184,40.02979 55.646,39.7630919 Z" id="XMLID_3904_" fill="#FFFFFF" opacity="0.2"></path>
                        <g id="XMLID_3021_" opacity="0.2" transform="translate(2.000000, 75.196850)" fill="#FFFFFF">
                            <path d="M1.351,19.6915486 L15.316,11.6073858 C15.531,11.4830604 15.662,11.2534593 15.662,11.005811 L15.662,0.852230971 C15.662,0.317832021 15.085,-0.0170446194 14.623,0.250656168 L0.959,8.1603622 C0.557,8.39297113 0.311,8.82209449 0.311,9.28630971 L0.311,19.0899738 C0.312,19.6243727 0.889,19.9592493 1.351,19.6915486 Z" id="XMLID_3896_"></path>
                        </g>
                        <path d="M4.008,77.4517533 L49.504,51.115811 C50.202,50.7117533 50.632,49.9637953 50.632,49.1556798 L50.632,2.33611549 C50.632,0.593553806 48.751,-0.495296588 47.246,0.375984252 L2.736,26.1414331 C1.428,26.8994173 0.622,28.2980787 0.622,29.812042 L0.622,75.4926247 C0.621,77.2341837 2.503,78.3230341 4.008,77.4517533 Z" id="XMLID_3018_" fill="#FFFFFF" opacity="0.5"></path>
                        <g transform="translate(2.000000, 2.005249)" fill="#FFBC00">
                            <g id="XMLID_3918_" transform="translate(26.000000, 68.178478)">
                                <path d="M0.578,3.31467717 C0.578,4.37946457 1.324,4.81059318 2.242,4.27819948 C3.162,3.74580577 3.907,2.45141732 3.907,1.38763255 C3.907,0.323847769 3.161,-0.108283465 2.242,0.424110236 C1.323,0.955501312 0.578,2.24988976 0.578,3.31467717 Z" id="XMLID_3920_"></path>
                                <path d="M2.242,4.27719685 C3.371,3.62448819 4.285,4.15387402 4.285,5.46029396 L0.2,7.82548556 C0.2,6.52006824 1.114,4.93090814 2.242,4.27719685 Z" id="XMLID_3919_"></path>
                            </g>
                            <g id="XMLID_3025_" transform="translate(40.000000, 60.157480)">
                                <path d="M1.042,3.24048294 C1.042,4.30527034 1.787,4.73639895 2.706,4.20400525 C3.625,3.67161155 4.371,2.3772231 4.371,1.31343832 C4.371,0.248650919 3.625,-0.18247769 2.706,0.34991601 C1.787,0.882309711 1.042,2.17669816 1.042,3.24048294 Z" id="XMLID_3914_"></path>
                                <path d="M2.707,4.20400525 C3.836,3.55129659 4.75,4.08068241 4.75,5.38609974 L0.66499918,7.75129134 C0.663999999,6.44587402 1.578,4.85771654 2.707,4.20400525 Z" id="XMLID_3913_"></path>
                            </g>
                            <path d="M55.372,18.4934121 C55.42,18.4934121 55.468,18.4813806 55.512,18.456315 L61.916,14.7496115 C62.051,14.6714068 62.096,14.499958 62.019,14.3656063 C61.942,14.2312546 61.77,14.1851339 61.636,14.262336 L55.232,17.9690394 C55.098,18.0472441 55.052,18.2186929 55.129,18.3530446 C55.182,18.4422782 55.276,18.4934121 55.372,18.4934121 Z" id="XMLID_3902_"></path>
                            <path d="M55.372,21.3448766 C55.42,21.3448766 55.468,21.3328451 55.512,21.3077795 L61.916,17.6010761 C62.051,17.523874 62.096,17.3514226 62.019,17.2170709 C61.942,17.0827192 61.77,17.0355958 61.636,17.1138005 L55.232,20.8205039 C55.098,20.8987087 55.052,21.0701575 55.129,21.2055118 C55.182,21.2937428 55.276,21.3448766 55.372,21.3448766 Z" id="XMLID_3901_"></path>
                            <path d="M55.372,24.1963412 C55.42,24.1963412 55.468,24.1843097 55.512,24.1582415 L61.916,20.4515381 C62.051,20.374336 62.096,20.2018845 62.019,20.0675328 C61.942,19.9331811 61.77,19.8870604 61.636,19.9642625 L55.232,23.6709659 C55.098,23.748168 55.052,23.9206194 55.129,24.0549711 C55.182,24.14621 55.276,24.1963412 55.372,24.1963412 Z" id="XMLID_3024_"></path>
                            <path d="M55.372,27.0478058 C55.42,27.0478058 55.468,27.0357743 55.512,27.009706 L61.916,23.3030026 C62.051,23.2247979 62.096,23.0533491 62.019,22.9189974 C61.942,22.7846457 61.77,22.7375223 61.636,22.815727 L55.232,26.5224304 C55.098,26.6006352 55.052,26.772084 55.129,26.9064357 C55.182,26.9966719 55.276,27.0478058 55.372,27.0478058 Z" id="XMLID_3023_"></path>
                            <path d="M55.372,29.8992703 C55.42,29.8992703 55.468,29.8872388 55.512,29.8621732 L61.916,26.1554698 C62.051,26.0782677 62.096,25.9058163 62.019,25.7714646 C61.942,25.6371129 61.77,25.5909921 61.636,25.6681942 L55.232,29.3748976 C55.098,29.4520997 55.052,29.6245512 55.129,29.7589029 C55.182,29.8491391 55.276,29.8992703 55.372,29.8992703 Z" id="XMLID_3898_"></path>
                            <path d="M7.767,86.9375853 C7.826,86.9375853 7.885,86.9305669 7.943,86.9145249 C8.125,86.8674016 8.28,86.7480892 8.375,86.585664 L13.224,78.1636168 C13.418,77.8277375 13.302,77.3976115 12.967,77.2031024 C12.632,77.0075906 12.203,77.123895 12.009,77.4597743 L7.516,85.2632021 L5.135,83.8334593 C4.803,83.633937 4.372,83.7432231 4.174,84.0760945 C3.975,84.4089659 4.082,84.8410971 4.415,85.0406194 L7.407,86.8363202 C7.516,86.9034961 7.641,86.9375853 7.767,86.9375853 Z" id="XMLID_3020_"></path>
                            <path d="M1.029,73.207643 C0.699,73.0161417 0.502,72.6742467 0.502,72.2912441 L0.502,27.6634173 C0.502,26.9756168 0.87,26.3349396 1.464,25.992042 L45.341,0.59455643 C45.635,0.424110236 45.986,0.424110236 46.281,0.59455643 C46.576,0.764 46.751,1.06980052 46.751,1.41069291 L46.751,46.5037375 C46.751,47.0271076 46.47,47.5143832 46.018,47.7760682 L2.085,73.207643 C1.92,73.3028924 1.739,73.3510184 1.558,73.3510184 C1.375,73.3510184 1.195,73.3028924 1.029,73.207643 Z M45.763,1.32446719 L1.886,26.7229554 C1.551,26.9164619 1.345,27.2774068 1.345,27.6644199 L1.345,72.2922467 C1.345,72.4035381 1.418,72.4586824 1.451,72.4777323 C1.483,72.4957795 1.568,72.5328766 1.665,72.4777323 L45.599,47.0461575 C45.792,46.9348661 45.911,46.7263202 45.911,46.5037375 L45.911,1.41069291 C45.911,1.36356955 45.885,1.33850394 45.862,1.32546982 C45.849,1.31845144 45.832,1.31143307 45.813,1.31143307 C45.796,1.31043045 45.78,1.31444094 45.763,1.32446719 Z" id="XMLID_3016_"></path>
                            <path d="M9.909,43.9991811 C10.054,43.9991811 10.196,43.9229816 10.274,43.7886299 C10.39,43.5871024 10.321,43.3284252 10.12,43.2121207 L7.976,41.971874 L10.297,37.9433281 C10.413,37.7418005 10.344,37.4831234 10.143,37.3668189 C9.941,37.2505144 9.684,37.3196955 9.567,37.5212231 L7.037,41.9147244 C6.981,42.011979 6.966,42.1272808 6.995,42.2355643 C7.024,42.3438478 7.094,42.4360892 7.19,42.4912336 L9.698,43.9430341 C9.765,43.9811339 9.837,43.9991811 9.909,43.9991811 Z" id="XMLID_2922_"></path>
                            <path d="M37.343,28.0704829 C37.489,28.0704829 37.63,27.9942835 37.708,27.8599318 L40.216,23.5045302 C40.272,23.4072756 40.287,23.2919738 40.258,23.1836903 C40.229,23.0754068 40.159,22.9831654 40.063,22.928021 L37.532,21.4631864 C37.331,21.3468819 37.074,21.416063 36.957,21.6175906 C36.841,21.8191181 36.91,22.0777953 37.111,22.1940997 L39.276,23.4473806 L36.979,27.4378268 C36.863,27.640357 36.932,27.8980315 37.133,28.014336 C37.2,28.0524357 37.272,28.0704829 37.343,28.0704829 Z" id="XMLID_2921_"></path>
                            <path d="M33.14,30.6462257 C33.14,35.7916955 29.538,42.0470709 25.094,44.6198058 C20.651,47.1925407 17.048,45.1070814 17.048,39.9626142 C17.048,34.8171444 20.651,28.561769 25.094,25.9890341 C29.538,23.4162992 33.14,25.5017585 33.14,30.6462257 Z" id="XMLID_918_"></path>
                        </g>
                    </g>
                    <polygon id="Shape" fill="#F79FE0" opacity="0.3" points="16.029 228.537265 16.029 120.58968 184.334 21.7930499"></polygon>
                </g>
            </g>
        </g>
    </g>
</svg>