<?xml version="1.0" encoding="UTF-8"?>
<svg width="222px" height="179px" viewBox="0 0 222 179" version="1.1" xmlns="http://www.w3.org/2000/svg" xmlns:xlink="http://www.w3.org/1999/xlink">
    <!-- Generator: Sketch 50.2 (55047) - http://www.bohemiancoding.com/sketch -->
    <title>XP_my_ws</title>
    <desc>Created with Sketch.</desc>
    <defs></defs>
    <g id="Page-1" stroke="none" stroke-width="1" fill="none" fill-rule="evenodd">
        <g id="Apple-TV" transform="translate(-1046.000000, -43.000000)" fill-rule="nonzero">
            <g id="XP" transform="translate(1046.000000, 43.000000)">
                <g id="Group">
                    <g transform="translate(0.000000, 22.123596)">
                        <polyline id="Shape_1_" fill="#FFA700" points="7.703 74.3443315 7.703 104.287612 19.75 99.6547303 21.708 90.4985787 21.017 83.5447303 18.252 79.3714157"></polyline>
                        <polyline id="Shape_2_" fill="#FF7E00" points="10.7 76.088073 10.7 106.031354 22.746 101.398472 24.706 92.2423202 24.014 85.2874663 21.248 81.1151573"></polyline>
                        <g id="Shape_3_">
                            <path d="M135.373,31.7021067 L213.702,78.4241236 C223.823,84.4427472 223.795,94.311882 213.636,100.359669 L124.089,152.054466 C113.848,158.154545 97.073,158.276225 86.814,152.321961 L7.702,105.428989 L7.702,103.425798 L135.373,31.7021067 Z" id="Shape" fill="#FFA700"></path>
                            <path d="M135.373,28.5575393 L213.702,75.2805618 C223.823,81.2991854 223.795,91.1683202 213.636,97.2140955 L124.089,148.908893 C113.848,155.007966 97.073,155.130652 86.814,149.178399 L7.702,102.285427 L135.373,28.5575393 Z" id="Shape" fill="#FF7E00"></path>
                            <path d="M200.253,76.6290955 L202.772,74.3443315 L213.428,67.3743933 L213.428,86.354427 L213.419,86.3534213 C213.51,90.1154382 211.157,93.9005843 206.35,96.762573 L123.386,144.656135 C113.896,150.304691 98.356,150.418326 88.847,144.907539 L15.549,101.459815 L15.549,82.3339663 L200.253,76.6290955 Z" id="Shape" fill="#FFFFFF"></path>
                            <polygon id="Shape" fill="#6A1B9A" points="13.417 120.722427 33.5 108.589646 20.975 101.196343 0.89 113.329124 8.804 116.029208"></polygon>
                            <polygon id="Shape" fill="#E45DBF" points="21.707 101.628758 33.448 108.559478 33.48 108.600708 31.879 109.570124 19.053 102.356826 20.741 101.338135"></polygon>
                            <path d="M135.373,3.95509551 L213.702,50.6771124 C223.823,56.6977472 223.795,66.5648708 213.636,72.6136629 L124.089,124.307455 C113.848,130.406528 97.073,130.527202 86.814,124.577966 L7.702,77.6839888 L7.702,74.3453371 L135.373,3.95509551 Z" id="Shape" fill="#FFA700"></path>
                            <path d="M135.373,0.61644382 L213.702,47.3384607 C223.823,53.3570843 223.795,63.2262191 213.636,69.2740056 L124.089,120.968803 C113.848,127.066871 97.073,127.186539 86.814,121.238309 L7.702,74.3443315 L135.373,0.61644382 Z" id="Shape" fill="#FFBC00"></path>
                            <g id="Group" transform="translate(19.000000, 88.494382)" fill="#D0CCCA">
                                <path d="M52.402,31.5643371 C52.633,31.5643371 52.856,31.4436629 52.979,31.2284607 C53.161,30.9076685 53.052,30.5003933 52.733,30.3173708 L1.703,0.902039326 C1.386,0.719016854 0.979,0.828629213 0.797,1.14942135 C0.613,1.46820225 0.724,1.87648315 1.042,2.05950562 L52.073,31.4758427 C52.177,31.538191 52.29,31.5643371 52.402,31.5643371 Z" id="Shape"></path>
                                <path d="M59.325,39.1828989 C59.556,39.1828989 59.779,39.0612191 59.902,38.8470225 C60.084,38.5282416 59.974,38.1209663 59.656,37.9369382 L1.704,4.53232022 C1.387,4.34929775 0.98,4.45891011 0.798,4.77869663 C0.614,5.09948876 0.725,5.50776966 1.043,5.69079213 L58.996,39.0923933 C59.099,39.153736 59.212,39.1828989 59.325,39.1828989 Z" id="Shape"></path>
                                <path d="M70.276,49.122427 C70.507,49.122427 70.73,49.003764 70.852,48.7875562 C71.034,48.466764 70.925,48.0594888 70.607,47.8754607 L1.703,8.15958427 C1.386,7.9765618 0.979,8.08617416 0.797,8.40696629 C0.613,8.72574719 0.724,9.13503371 1.042,9.31805618 L69.947,49.0369494 C70.05,49.0972865 70.163,49.122427 70.276,49.122427 Z" id="Shape"></path>
                                <path d="M70.276,52.7527079 C70.507,52.7527079 70.73,52.6320337 70.852,52.4178371 C71.034,52.0980506 70.925,51.688764 70.607,51.5057416 L1.703,11.7898652 C1.386,11.6078483 0.979,11.7174607 0.797,12.0382528 C0.613,12.3580393 0.724,12.7663202 1.042,12.9493427 L69.947,52.6642135 C70.05,52.7245506 70.163,52.7527079 70.276,52.7527079 Z" id="Shape"></path>
                            </g>
                            <g id="Group" transform="translate(121.000000, 79.443820)" fill="#D0CCCA">
                                <path d="M29.723,34.6897978 C29.833,34.6897978 29.945,34.6606348 30.049,34.6033146 L87.614,1.86743258 C87.933,1.68541573 88.045,1.27814045 87.865,0.957348315 C87.684,0.63655618 87.279,0.523926966 86.96,0.70594382 L29.397,33.4418258 C29.078,33.6238427 28.965,34.031118 29.145,34.3539213 C29.266,34.568118 29.492,34.6897978 29.723,34.6897978 Z" id="Shape"></path>
                                <path d="M18.383,44.7660899 C18.494,44.7660899 18.605,44.7379326 18.709,44.6806124 L87.614,5.4987191 C87.933,5.31770787 88.045,4.90942697 87.865,4.58863483 C87.684,4.2678427 87.279,4.15521348 86.96,4.33622472 L18.056,43.5191236 C17.738,43.7011404 17.624,44.1084157 17.806,44.4302135 C17.926,44.6454157 18.152,44.7660899 18.383,44.7660899 Z" id="Shape"></path>
                                <path d="M8.344,54.5457247 C8.454,54.5457247 8.567,54.5165618 8.672,54.4562247 L87.615,9.12497753 C87.934,8.94195506 88.044,8.53266854 87.863,8.21288202 C87.681,7.89309551 87.276,7.78046629 86.956,7.96449438 L8.013,53.2977528 C7.694,53.4797697 7.584,53.8880506 7.765,54.2088427 C7.887,54.4260562 8.112,54.5457247 8.344,54.5457247 Z" id="Shape"></path>
                                <path d="M1.187,61.8032697 C1.298,61.8032697 1.411,61.776118 1.515,61.7167865 L87.614,12.756264 C87.933,12.5762584 88.045,12.1669719 87.865,11.8471854 C87.684,11.5263933 87.279,11.413764 86.96,11.5947753 L0.86,60.5583146 C0.541,60.7383202 0.428,61.1466011 0.609,61.4663876 C0.732,61.6805843 0.957,61.8032697 1.187,61.8032697 Z" id="Shape"></path>
                            </g>
                        </g>
                    </g>
                    <g id="Group_1_" transform="translate(32.000000, 4.022472)">
                        <g id="Shape_5_">
                            <polyline id="Shape" fill="#D81245" points="0.859 63.655618 0.859 89.2284831 11.148 85.2703708 12.822 77.4506854 12.231 71.5125112 9.869 67.9496067"></polyline>
                            <polyline id="Shape" fill="#A3002F" points="3.42 65.1449382 3.42 90.7178034 13.707 86.7606966 15.382 78.9410112 14.79 73.0018315 12.427 69.4379213"></polyline>
                            <g id="Group">
                                <path d="M109.893,27.2391742 L176.785,67.1400843 C185.429,72.2808034 185.404,80.707882 176.729,85.8717303 L100.254,130.019365 C91.51,135.227461 77.185,135.330034 68.423,130.24764 L0.86,90.1999101 L0.86,88.4893539 L109.893,27.2391742 Z" id="Shape" fill="#D81245"></path>
                                <path d="M109.893,24.5541742 L176.785,64.4550843 C185.429,69.5958034 185.404,78.022882 176.729,83.187736 L100.254,127.335371 C91.51,132.544472 77.185,132.647045 68.423,127.563646 L0.86,87.5169213 L109.893,24.5541742 Z" id="Shape" fill="#A3002F"></path>
                                <path d="M165.3,65.6075225 L167.451,63.655618 L176.551,57.7033652 L176.551,73.913927 L176.543,73.9129213 C176.621,77.1248652 174.612,80.3559157 170.506,82.8015787 L99.653,123.703079 C91.55,128.529039 78.278,128.622562 70.158,123.918281 L7.56,86.8129888 L7.56,70.4797416 L165.3,65.6075225 Z" id="Shape" fill="#FFFFFF"></path>
                                <path d="M109.893,3.54379775 L176.785,43.4447079 C185.429,48.585427 185.404,57.0125056 176.729,62.1773596 L100.254,106.324994 C91.51,111.531079 77.185,111.635663 68.423,106.555281 L0.86,66.5085562 L0.86,63.6566236 L109.893,3.54379775 Z" id="Shape" fill="#D81245"></path>
                                <path d="M109.893,0.691865169 L176.785,40.5917697 C185.429,45.7334944 185.404,54.160573 176.729,59.3264326 L100.254,103.472056 C91.51,108.680152 77.185,108.78373 68.423,103.702343 L0.86,63.655618 L109.893,0.691865169 Z" id="Shape" fill="#FF557B"></path>
                                <g transform="translate(11.000000, 75.421348)" fill="#D0CCCA" id="Shape">
                                    <path d="M44.261,27.3729213 C44.491,27.3729213 44.715,27.2522472 44.837,27.0370449 C45.019,26.7162528 44.909,26.3079719 44.59,26.1259551 L1.01,1.00461236 C0.694,0.82058427 0.286,0.930196629 0.103,1.25098876 C-0.079,1.57077528 0.031,1.97905618 0.349,2.16107303 L43.929,27.2824157 C44.035,27.3437584 44.148,27.3729213 44.261,27.3729213 Z"></path>
                                    <path d="M50.171,33.8792697 C50.402,33.8792697 50.625,33.7585955 50.748,33.5433933 C50.93,33.2226011 50.822,32.8143202 50.502,32.6312978 L1.01,4.10493258 C0.694,3.92191011 0.286,4.03152247 0.103,4.35130899 C-0.079,4.67109551 0.031,5.08038202 0.349,5.26239888 L49.841,33.788764 C49.946,33.8501067 50.059,33.8792697 50.171,33.8792697 Z"></path>
                                    <path d="M59.524,42.3686966 C59.755,42.3686966 59.978,42.2480225 60.1,42.0318146 C60.282,41.7120281 60.172,41.3047528 59.855,41.1207247 L1.01,7.20324157 C0.694,7.0202191 0.286,7.13083708 0.103,7.44961798 C-0.079,7.76940449 0.031,8.17869101 0.349,8.36171348 L59.193,42.2791966 C59.298,42.3405393 59.412,42.3686966 59.524,42.3686966 Z"></path>
                                    <path d="M59.524,45.4670056 C59.755,45.4670056 59.978,45.3473371 60.1,45.1311292 C60.282,44.8123483 60.172,44.4040674 59.855,44.2200393 L1.01,10.3035618 C0.694,10.1205393 0.286,10.2321629 0.103,10.5519494 C-0.079,10.8707303 0.031,11.2800169 0.349,11.4630393 L59.193,45.3795169 C59.298,45.4388483 59.412,45.4670056 59.524,45.4670056 Z"></path>
                                </g>
                                <g transform="translate(97.000000, 68.382022)" fill="#D0CCCA" id="Shape">
                                    <path d="M26,29.3519775 C26.111,29.3519775 26.223,29.3238202 26.326,29.2654944 L75.485,1.30931461 C75.804,1.12830337 75.917,0.720022472 75.736,0.399230337 C75.555,0.0784382022 75.15,-0.0341910112 74.831,0.146820225 L25.671,28.1040056 C25.352,28.2850169 25.24,28.6932978 25.42,29.0130843 C25.543,29.2302978 25.769,29.3519775 26,29.3519775 Z"></path>
                                    <path d="M16.316,37.9580562 C16.427,37.9580562 16.541,37.9298989 16.643,37.871573 L75.486,4.40963483 C75.805,4.22761798 75.918,3.82134831 75.737,3.49955056 C75.556,3.17875843 75.151,3.06612921 74.832,3.24714045 L15.989,36.7090787 C15.67,36.8910955 15.558,37.2983708 15.738,37.6191629 C15.86,37.8363764 16.085,37.9580562 16.316,37.9580562 Z"></path>
                                    <path d="M7.742,46.3097135 C7.853,46.3097135 7.966,46.2805506 8.071,46.2202135 L75.489,7.50593258 C75.808,7.32291011 75.919,6.91462921 75.736,6.59383708 C75.555,6.27405056 75.149,6.16142135 74.83,6.34544944 L7.412,45.060736 C7.095,45.2437584 6.983,45.6510337 7.166,45.9718258 C7.287,46.1880337 7.511,46.3097135 7.742,46.3097135 Z"></path>
                                    <path d="M1.631,52.5063315 C1.741,52.5063315 1.853,52.4781742 1.957,52.4208539 L75.486,10.6072584 C75.805,10.4252416 75.918,10.0179663 75.737,9.69817978 C75.556,9.37738764 75.151,9.26375281 74.832,9.44476404 L1.303,51.2573539 C0.984,51.4393708 0.872,51.8466461 1.051,52.1674382 C1.174,52.3866629 1.399,52.5063315 1.631,52.5063315 Z"></path>
                                </g>
                            </g>
                        </g>
                        <polygon id="Shape_6_" fill="#D81245" points="0.859 88.357618 3.42 89.7272697 3.42 81.9025562 0.859 81.9025562"></polygon>
                    </g>
                    <g transform="translate(85.000000, 0.000000)">
                        <g id="Group_6_">
                            <g id="Shape_102_">
                                <polyline id="Shape" fill="#00A99D" points="0.472 43.0786629 0.472 60.2505955 7.381 57.5927472 8.505 52.3414101 8.108 48.3541348 6.522 45.9617697"></polyline>
                                <polyline id="Shape" fill="#007267" points="2.192 44.0782472 2.192 61.2511854 9.099 58.5933371 10.224 53.3430056 9.827 49.3537191 8.24 46.9613539"></polyline>
                                <g id="Group">
                                    <path d="M73.69,18.6240449 L118.609,45.4177303 C124.413,48.8700169 124.397,54.5286292 118.572,57.996 L67.218,87.641618 C61.346,91.1391573 51.727,91.2075393 45.843,87.7944719 L0.473,60.902236 L0.473,59.7538202 L73.69,18.6240449 Z" id="Shape" fill="#00A99D"></path>
                                    <path d="M73.69,16.8209719 L118.609,43.6146573 C124.413,47.0669438 124.397,52.7255562 118.572,56.1939326 L67.218,85.8395506 C61.346,89.3370899 51.727,89.4064775 45.843,85.9924045 L0.473,59.1011742 L73.69,16.8209719 Z" id="Shape" fill="#007267"></path>
                                    <path d="M110.896,44.3889831 L112.34,43.0786629 L118.451,39.0813315 L118.451,49.9671461 L118.446,49.9661404 C118.498,52.123191 117.149,54.2933146 114.392,55.9344831 L66.814,83.3999213 C61.372,86.6400225 52.46,86.7033764 47.008,83.5447303 L4.973,58.6275281 L4.973,47.6602584 L110.896,44.3889831 Z" id="Shape" fill="#FFFFFF"></path>
                                    <path d="M73.69,2.71215169 L118.609,29.5058371 C124.413,32.9581236 124.397,38.616736 118.572,42.0851124 L67.218,71.7307303 C61.346,75.227264 51.727,75.2966517 45.843,71.8855955 L0.473,44.9943652 L0.473,43.0796685 L73.69,2.71215169 Z" id="Shape" fill="#00A99D"></path>
                                    <path d="M73.69,0.797455056 L118.609,27.5901348 C124.413,31.0424213 124.397,36.7020393 118.572,40.1714213 L67.218,69.8160337 C61.346,73.313573 51.727,73.3829607 45.843,69.9708989 L0.473,43.0786629 L73.69,0.797455056 Z" id="Shape" fill="#4BDBCA"></path>
                                    <g transform="translate(7.000000, 51.286517)" fill="#D0CCCA" id="Shape">
                                        <path d="M30.004,18.0739719 C30.158,18.0739719 30.309,17.9935225 30.391,17.8487135 C30.513,17.6335112 30.439,17.3589775 30.225,17.2372978 L0.961,0.36805618 C0.749,0.244365169 0.475,0.317775281 0.352,0.533983146 C0.23,0.748179775 0.304,1.02271348 0.517,1.14539888 L29.781,18.0146404 C29.852,18.0538596 29.928,18.0739719 30.004,18.0739719 Z"></path>
                                        <path d="M33.973,22.443382 C34.128,22.443382 34.278,22.361927 34.361,22.2181236 C34.483,22.0029213 34.411,21.7283876 34.196,21.6057022 L0.962,2.45069101 C0.75,2.32800562 0.476,2.40141573 0.353,2.61661798 C0.231,2.83081461 0.305,3.10635393 0.518,3.22803371 L33.752,22.3840506 C33.821,22.4232697 33.897,22.443382 33.973,22.443382 Z"></path>
                                        <path d="M40.253,28.1442303 C40.408,28.1442303 40.558,28.0637809 40.64,27.9179663 C40.762,27.7037697 40.688,27.429236 40.476,27.3065506 L0.961,4.53030899 C0.749,4.4076236 0.475,4.48203933 0.352,4.69623596 C0.23,4.91043258 0.304,5.18597191 0.517,5.3086573 L40.031,28.0848989 C40.101,28.124118 40.178,28.1442303 40.253,28.1442303 Z"></path>
                                        <path d="M40.253,30.2248539 C40.408,30.2248539 40.558,30.1444045 40.64,29.9995955 C40.762,29.7853989 40.688,29.5118708 40.476,29.3881798 L0.961,6.61294382 C0.749,6.49025843 0.475,6.56467416 0.352,6.7798764 C0.23,6.99407303 0.304,7.26860674 0.517,7.39129213 L40.031,30.1665281 C40.101,30.2047416 40.178,30.2248539 40.253,30.2248539 Z"></path>
                                    </g>
                                    <g transform="translate(65.000000, 46.258427)" fill="#D0CCCA" id="Shape">
                                        <path d="M17.491,19.7040787 C17.566,19.7040787 17.641,19.6849719 17.71,19.6457528 L50.721,0.872876404 C50.935,0.751196629 51.011,0.477668539 50.89,0.261460674 C50.768,0.045252809 50.496,-0.0301685393 50.282,0.0925168539 L17.271,18.8663989 C17.057,18.9880787 16.981,19.2616067 17.103,19.476809 C17.185,19.621618 17.336,19.7040787 17.491,19.7040787 Z"></path>
                                        <path d="M10.988,25.4823596 C11.063,25.4823596 11.139,25.4632528 11.208,25.4240337 L50.722,2.95450562 C50.936,2.83282584 51.012,2.55929775 50.891,2.34308989 C50.769,2.12688202 50.497,2.05146067 50.283,2.17414607 L10.769,24.6436742 C10.554,24.7653539 10.479,25.0398876 10.601,25.2550899 C10.682,25.4009045 10.833,25.4823596 10.988,25.4823596 Z"></path>
                                        <path d="M5.231,31.090691 C5.306,31.090691 5.381,31.0715843 5.452,31.0303539 L50.724,5.03311798 C50.938,4.91043258 51.013,4.63589888 50.89,4.42069663 C50.768,4.2065 50.496,4.13007303 50.282,4.25376404 L5.01,30.251 C4.797,30.3736854 4.722,30.6472135 4.845,30.8624157 C4.925,31.009236 5.076,31.090691 5.231,31.090691 Z"></path>
                                        <path d="M1.127,35.2529438 C1.201,35.2529438 1.276,35.2338371 1.346,35.1956236 L50.721,7.11776404 C50.935,6.99608427 51.011,6.72155056 50.89,6.50735393 C50.768,6.29215169 50.496,6.21572472 50.282,6.33740449 L0.907,34.415264 C0.692,34.5369438 0.617,34.8104719 0.738,35.0266798 C0.82,35.1714888 0.971,35.2529438 1.127,35.2529438 Z"></path>
                                    </g>
                                </g>
                            </g>
                            <polygon id="Shape_18_" fill="#00A99D" points="0.472 59.6653258 2.192 60.5864719 2.192 55.3311124 0.472 55.3311124"></polygon>
                        </g>
                        <polygon id="Shape_12_" fill="#00A99D" points="89.365 9.98779775 17.122 52.6541573 6.111 46.1196517 78.368 3.44625281"></polygon>
                        <polygon id="Shape_13_" fill="#00A99D" points="113.164 33.6841798 90.901 46.6435787 64.067 30.788 86.344 17.8205562"></polygon>
                        <polygon id="Shape_14_" fill="#00A99D" points="87.895 48.0946854 82.371 51.1980225 55.537 35.3414382 61.075 32.2320674"></polygon>
                        <polygon id="Shape_19_" fill="#6A1B9A" points="31.506 68.5590112 25.145 72.2124213 1.603 58.3550056 8.137 54.9590337"></polygon>
                    </g>
                </g>
                <polygon id="Shape_4_" fill="#FFA700" points="7.703 126.787309 10.7 128.393281 10.7 119.231096 7.703 119.231096"></polygon>
            </g>
        </g>
    </g>
</svg>